<?xml version="1.0" encoding="utf-8"?>
<!-- Generator: Adobe Illustrator 26.0.2, SVG Export Plug-In . SVG Version: 6.00 Build 0)  -->
<svg version="1.1" id="Layer_1" xmlns="http://www.w3.org/2000/svg" xmlns:xlink="http://www.w3.org/1999/xlink" x="0px" y="0px"
	 viewBox="0 0 553 661" style="enable-background:new 0 0 553 661;" xml:space="preserve">
<style type="text/css">
	.st0{fill:url(#SVGID_1_);}
	.st1{filter:url(#Adobe_OpacityMaskFilter);}
	.st2{fill:#5D5D5D;}
	.st3{opacity:0.26;mask:url(#SVGID_00000156563031963135751230000010457796569116097416_);fill:#FFFFFF;enable-background:new    ;}
</style>
<linearGradient id="SVGID_1_" gradientUnits="userSpaceOnUse" x1="-52.4863" y1="341.3088" x2="530.595" y2="341.3088" gradientTransform="matrix(1 0 0 -1 0 662)">
	<stop  offset="0" style="stop-color:#627C50"/>
	<stop  offset="1" style="stop-color:#38472E"/>
</linearGradient>
<path class="st0" d="M530.6,484.7c0.3,10.5-6.8,21.9-16.7,26.8c-12.9,6.2-20.8-3.4-36,0.5c-19.6,5.2-35.6,28.7-30.9,41.7
	c3.9,10.5,19.5,8.4,26,22.9c4.1,8.8-1.3,11.6,3.4,20c7.9,14,29.4,13.6,26.9,40.6c-1.7,18.6-16.6,30.9-27.2,30.9H347.2v0.2H-52.5V-27
	h527.1c-1.1,8.5-1,20.3,8.9,20.3c12.2,0,28.8,15.8,25.6,38.5c-2.7,18.4-15.5,21.1-24.9,25.6c-20.6,9.8-11.4,31.1,2.7,41.5
	c4.6,3.4,10.8,6.2,12.4,15c1.5,8.3-3.1,15.3-2.9,23.5c0.5,18.7,31.2,25.1,16.8,48.3c-5.8,9.3-15.9,6.6-23,12.4
	c-11.6,9.6-19.4,30.3-20.2,50.9c-1.1,25.1,9.7,39.5,22.6,50.2c15,12.4,12.8,40.8,3.2,59.1c-7.5,14.5-20.4,15.1-28.7,28.3
	c-7.6,12.2-12.6,32.6-9.3,49.6c2.2,11.2,4.4,15.1,7,15.8c6,1.8,11.2-0.9,18.3-1.9C502,447.1,530,464.4,530.6,484.7z"/>
<defs>
	<filter id="Adobe_OpacityMaskFilter" filterUnits="userSpaceOnUse" x="-52.5" y="-27.1" width="583.2" height="695.6">
		<feColorMatrix  type="matrix" values="1 0 0 0 0  0 1 0 0 0  0 0 1 0 0  0 0 0 1 0"/>
	</filter>
</defs>
<mask maskUnits="userSpaceOnUse" x="-52.5" y="-27.1" width="583.2" height="695.6" id="SVGID_00000156563031963135751230000010457796569116097416_">
	<g class="st1">
		<g>
			<path class="st2" d="M137.4,685.8c-11.4-16.2-41.3-23.6-64.3-23.6c-7.1,0-13.7,0.6-19.6,1.8c-21.6,4.6-40.1,8.7-56.4,12.4
				c-43.6,9.7-69.9,15.6-91.8,15.6c-18.2,0-33.8-4-55.6-14.3c-22.8-10.8-39.6-20.9-53-29.2c-21.1-12.8-35.1-21.3-54.1-21.3
				c-6.2,0-12.9,1-20.6,2.9v1.6c7.5-1.9,14.3-2.9,20.6-2.9c18.6,0,32.4,8.4,53.3,21.1c13.4,8.2,30.2,18.4,53.2,29.2
				c22.1,10.3,37.9,14.4,56.4,14.4c22.1,0,48.4-5.9,92.1-15.6c16.2-3.7,34.8-7.7,56.4-12.4c5.8-1.2,12.3-1.8,19.2-1.8
				c22.6,0,52,7.2,63.1,22.9c4.8,6.9,5.7,14.8,2.4,23.5c-6.6,17.2-37.4,32.4-64.7,45.8c-16.5,8.1-32,15.7-40,22.8
				c-23.3,20.8-17.8,48.8-8.3,79.2H27c-9.4-30-15.1-57.9,7.6-78.1c7.9-7,23.2-14.5,39.6-22.6c27.4-13.6,58.6-28.8,65.4-46.6
				C143.4,701.6,142.6,693.2,137.4,685.8z"/>
			<path class="st2" d="M-270.8,509.4c3.2-68,47.3-117.6,82.7-157.5l2.5-2.8c4.1-4.3,13.6-15.6,12.8-29.4
				c-0.4-8.4-4.6-15.9-12.5-22.5c-4.7-4-9-7.6-13.2-11.1c-18.3-15.5-32.8-27.7-55.3-43c-8.2-5.6-16.2-10.9-24.2-15.9v0.8
				c7.7,4.9,15.7,10.1,23.8,15.6c22.5,15.3,36.9,27.5,55.2,43c4.2,3.6,8.5,7.2,13.2,11.1c7.7,6.5,11.8,13.9,12.3,22.1
				c0.8,13.4-8.6,24.7-12.7,28.9l-2.5,2.8c-35.5,39.9-79.7,89.6-82.9,158c-0.3,7.3-3.2,11.7-6.5,13.2v0.8
				C-274.4,521.8-271.1,517.3-270.8,509.4z"/>
			<path class="st2" d="M122.1,789.2c-2.9-2.9-6.8-4.4-11.4-4.4c-14.1,0-31.7,13.7-37.7,20c-21.6,23-24.2,35.9-19.8,53.4h1.2
				c-4.3-17.1-1.8-29.8,19.5-52.6c5.8-6.1,23-19.6,36.8-19.6c4.3,0,7.9,1.4,10.5,4.1c4.6,4.6,7,13.2,7,25.5c-0.1,15-2.7,28.7-6,42.6
				h1.2c3.3-14,5.9-27.7,5.9-42.6C129.5,802.9,127,794,122.1,789.2z"/>
			<path class="st2" d="M-255.1,510c2.9-62.6,45.1-110,78.9-148.1l2.5-2.8c7.1-8,12.9-15.1,17.1-21.1c5.3-7.4,15.1-21.2-8.1-43.1
				c-25-23.7-51.9-45.4-80.2-64.7c-11.5-7.9-22.6-15-33.1-21.3v0.8c10.4,6.2,21.4,13.2,32.7,21c28.2,19.3,55.1,41,80.1,64.7
				c22.7,21.5,13.1,35.1,8,42.3c-4.2,5.9-10,13-17.1,21l-2.6,2.8c-33.9,38.1-76.1,85.5-79.1,148.5c-1.4,29.2-6.7,46.2-16.6,53.4
				c-1.9,1.4-3.9,2.3-5.6,2.4v0.6c1.9-0.2,3.9-1,5.9-2.6C-261.9,556.5-256.5,539.4-255.1,510z"/>
			<path class="st2" d="M18.7,61.9C14.3,45-20.9,40.5-61.5,35.2C-71.6,33.9-82,32.6-92.1,31c-44.7-6.9-85.5-28.9-125-50.2
				c-19.8-10.7-40-21.6-60.7-30.6v1.7c20.4,8.9,40.3,19.7,59.9,30.2c39.6,21.4,80.7,43.5,125.6,50.5c10.1,1.6,20.6,2.9,30.7,4.2
				c38.5,4.9,74.9,9.7,79,25.5c3.2,12.4-13.2,31.2-50.2,57.5c-51.9,36.9-95.4,54.1-137,54.1c-23.7,0-47-5.8-69.6-17.1
				c-14.1-7.1-26.5-15.7-38.2-24.4v1.9c11.6,8.5,23.8,16.9,37.6,23.8c22.8,11.5,46.5,17.3,70.4,17.3l0,0c42,0,85.8-17.3,137.9-54.3
				C5.9,93.9,22.1,75.2,18.7,61.9z"/>
			<path class="st2" d="M-272.1,410.2c6-10.4,13.9-19.9,21.4-29.2c11-13.2,22.3-26.9,28.3-43.7c10.8-29.6-10.3-43.4-32.6-57.8
				c-2-1.3-4.1-2.7-6.2-4.1c-3.7-2.5-7.1-4.7-10.5-7.1c-1.7-1.2-3.8-2.6-6.3-4.4v0.9c2.4,1.7,4.3,3.1,5.9,4.2
				c3.4,2.4,6.9,4.6,10.5,7.1c2,1.4,4.1,2.7,6.1,4.1c22.1,14.3,42.8,27.9,32.3,57c-6,16.7-17.3,30.3-28.2,43.6
				c-7.6,9.1-15.5,18.7-21.5,29.2c-1.8,3.1-3.4,7.2-5.3,11.6v1.8c0.2-0.4,0.3-0.9,0.5-1.4C-275.5,417.4-273.9,413.3-272.1,410.2z"/>
			<path class="st2" d="M431.8,792.8c-0.9-7.4-5.6-14-14.2-19.3c-15.5-9.6-47.8-13.9-73.1-13.9c-4.9,0-9.5,0.2-13.4,0.5
				c-24.6,2-50.2,6.8-78.3,14.6c-4,1.1-8.1,2.4-11.8,3.6C194,793.6,167,817.8,154,858.1h1.2c12.9-39.7,39.8-63.6,86.1-78.8
				c3.9-1.3,7.9-2.5,11.8-3.6c28.1-7.7,53.6-12.6,78.1-14.5c4-0.3,8.4-0.4,13.3-0.4c25.1,0,57.1,4.2,72.4,13.7
				c8.3,5.1,12.8,11.3,13.7,18.4c2,17.9-19.2,38.8-36.2,55.7c-3.4,3.4-6.7,6.6-9.5,9.5h1.5c2.6-2.7,5.6-5.6,8.7-8.7
				C412.5,832.4,434,811.2,431.8,792.8z"/>
			<path class="st2" d="M3.4,736.6c3.7-2.3,7.9-2.6,11.4-2.6c1.7,0,3.4,0.1,5.3,0.1c1.8,0.1,3.7,0.2,5.5,0.2c4.2,0,9.6-0.4,14.5-3.4
				c12.8-7.7,17-16.8,15.5-21.8c-1-3.3-4.3-5.3-9-5.3c-4.3,0-9.7,1.5-15.7,4.4c-3.9,1.8-7.3,5.1-10.7,8.3c-4.1,3.8-8.2,7.7-13,9
				c-1.5,0.4-2.9,0.6-4.4,0.6c-3,0-5.7-0.8-8.6-1.6c-2.8-0.8-5.8-1.6-9-1.6c-1.1,0-2.3,0.1-3.3,0.3c-5.7,1.1-9.6,4.6-13.3,8.1
				c-3.1,2.9-6.3,5.8-10.7,7.3c-4.8,1.5-11.3,2.3-20,2.3c-11.2,0-23.7-1.4-33.7-2.5c-2.9-0.3-5.6-0.6-8-0.9
				c-20.8-2-42.4-8.4-66-19.6c-25.1-11.7-42.9-22.7-57.3-31.4c-7.9-4.7-15.9-7.2-23.9-7.2c-10.1,0-19.2,3.8-26.9,9.7v0.9
				c7.6-5.9,16.7-9.8,26.9-9.8c7.9,0,15.8,2.4,23.6,7.1c14.4,8.8,32.4,19.7,57.3,31.4c23.7,11.2,45.4,17.5,66.2,19.6
				c2.4,0.2,5.1,0.5,8,0.9c10,1.1,22.5,2.5,33.7,2.5c8.7,0,15.3-0.9,20.2-2.5c4.4-1.5,7.6-4.5,10.9-7.4c3.9-3.6,7.5-6.9,13-7.9
				c1.1-0.2,2.2-0.3,3.2-0.3c3.1,0,6,0.9,8.8,1.6c2.8,0.8,5.7,1.6,8.8,1.6c1.6,0,3.1-0.2,4.6-0.6c4.9-1.3,9.1-5.4,13.3-9.3
				c3.3-3.1,6.7-6.3,10.4-8.1c5.9-2.8,11.3-4.3,15.4-4.3c4.5,0,7.5,1.7,8.4,4.8c1.4,4.8-2.8,13.6-15.2,21.1
				c-4.8,2.9-10.1,3.3-14.2,3.3c-1.8,0-3.7-0.1-5.5-0.2c-1.7-0.1-3.6-0.1-5.3-0.1c-3.8,0-8.1,0.3-11.8,2.7c-4.2,2.6-7.3,9-10.3,15.3
				c-1.8,3.8-3.6,7.3-5.4,9.8c-15.4,20.6-16.2,42.7-13,69.6c1.2,9.3,3,18.4,5.4,27.2h0.6c-2.4-8.9-4.2-18.1-5.4-27.3
				c-3.3-26.8-2.4-48.7,12.8-69.2c1.9-2.5,3.7-6.1,5.5-9.9C-3.7,745.4-0.6,739.1,3.4,736.6z"/>
			<path class="st2" d="M73.7-0.2c-3.9,0-9.4,2.4-13.3,14c-4.5,13,4.2,16,13.3,19.2c1.6,0.5,3.2,1.2,4.8,1.8c3.7,1.4,6.7,2.2,9,2.2
				c2.7,0,4.5-0.9,5.7-2.6c3.4-5.4-2-17.2-4.6-22.1C84.7,4.4,79-0.2,73.7-0.2z M92.4,33.7c-1.8,2.8-6.3,2.8-13.3,0
				c-1.6-0.6-3.3-1.2-4.9-1.8c-9-3.1-16.8-5.8-12.7-17.8c3-8.6,7.2-13.2,12.3-13.2c4.9,0,10.1,4.4,14.1,11.8
				C92.9,22.5,94.6,30.2,92.4,33.7z"/>
			<path class="st2" d="M-217.3,361.5c1-1.2,2-2.4,3-3.6c14.4-16.7,29.4-34,12.4-54.7c-13.1-15.9-32.9-29.2-50.5-40.8
				c-3.7-2.4-7-4.7-10.4-7c-2.3-1.5-5.3-3.8-8.8-6.2c-1.9-1.4-4.1-2.9-6.3-4.5v0.9c2.2,1.5,4.1,3,6,4.3c3.6,2.6,6.6,4.7,8.9,6.3
				c3.3,2.3,6.8,4.6,10.4,7c17.4,11.6,37.2,24.7,50.2,40.7c16.6,20.2,1.8,37.3-12.4,53.8c-1.1,1.2-2,2.4-3,3.6
				c-12.6,14.7-28.5,34.3-41.2,56.3c-7.6,13.3-14,27.3-18.8,41.6v2.2c4.9-15,11.4-29.6,19.5-43.5
				C-245.8,395.8-229.8,376.3-217.3,361.5z"/>
			<path class="st2" d="M87,854.4c-1-3.6-2.7-6-4.3-8.5c-2.5-3.7-4.6-6.9-3.8-12.9c1.2-8.3,11.3-28.5,22.3-28.5c0.1,0,0.2,0,0.3,0
				c5.5,0.2,8.9,1.6,10.3,4.1c2.5,4.5-2,12.2-5.7,18.4c-1.9,3.3-3.7,6.2-4,8.1c-0.6,3.8,1.1,5.8,2.7,8c1.3,1.6,2.5,3.2,2.5,5.5
				c-0.1,4.8-2.3,7-4.5,9.5c-0.1,0.1-0.2,0.2-0.3,0.3h1c2.4-2.5,4.5-4.7,4.6-9.7c0.1-2.5-1.3-4.2-2.6-5.9c-1.5-1.9-3.1-4-2.6-7.4
				c0.3-1.7,1.9-4.6,3.9-7.9c3.8-6.3,8.4-14.1,5.7-19c-1.5-2.7-5.1-4.2-10.9-4.4c-0.1,0-0.2,0-0.3,0c-11.3,0-21.7,20.8-22.9,29.2
				c-0.9,6.2,1.4,9.7,3.9,13.3c1.6,2.4,3.2,4.8,4.2,8.3c0.3,1.4,0.5,2.5,0.6,3.6h0.6C87.5,857,87.3,855.8,87,854.4z"/>
			<path class="st2" d="M-230,138.3c17,8.6,31.5,12.6,45.6,12.6c14.7,0,27.8-4.3,42.9-9.4c8.6-2.9,18.3-6.1,29.4-8.8
				c5.6-1.4,10.4-1.5,13.7-1.5c2.2,0,4.2,0.1,6.1,0.1c1.8,0.1,3.7,0.1,5.4,0.1c9.1,0,16.4-2.2,24.2-12.6c5.4-7.1,7.3-12.6,9.1-17.4
				c2.7-7.2,4.7-12.9,16.4-21.1c3-2.2,7.2-3.8,11.4-5.4c6.7-2.6,12.4-4.8,12.6-8.6c0.2-3-3.4-6.5-11.4-10.8
				c-9.5-5.1-23.1-5.8-35.2-5.8c-5.4,0-11,0.2-16.5,0.3c-5.5,0.1-11.2,0.3-16.6,0.3c-12.1,0-20.6-0.9-27.4-2.7
				c-39.1-10.4-75.6-30.1-107.9-47.6c-17-9.1-33.4-18-49.8-25.6v1.2c16.2,7.5,32.5,16.4,49.3,25.4c32.4,17.4,69,37.2,108.1,47.7
				c7,1.8,15.6,2.7,27.8,2.7c5.5,0,11.1-0.2,16.6-0.3c5.5-0.1,11.1-0.3,16.5-0.3c11.9,0,25.3,0.6,34.6,5.6c7.3,3.9,11,7.2,10.8,9.7
				c-0.2,3-5.9,5.3-11.9,7.6c-4.2,1.6-8.5,3.3-11.6,5.5c-11.8,8.5-14,14.6-16.7,21.8c-1.7,4.7-3.8,10.2-8.9,17.1
				c-7.6,10.1-14.6,12.2-23.3,12.2c-1.7,0-3.6-0.1-5.4-0.1c-2-0.1-4.1-0.2-6.2-0.2c-3.2,0-8.2,0.2-14,1.6c-11.1,2.7-20.9,6-29.5,8.8
				c-15.1,4.9-28.1,9.4-42.6,9.4c-13.9,0-28.2-4-45.1-12.5c-15.4-7.7-29.4-18.1-42.7-28.2c-1.8-1.4-3.8-2.8-5.6-4.2v1.4
				c1.6,1.2,3.3,2.5,4.9,3.7C-259.5,120.1-245.6,130.4-230,138.3z"/>
			<path class="st2" d="M315.8,827.3c-1.1-0.4-2.8-0.6-4.9-0.6c-13,0-40.6,7.6-40.9,7.7c-3.1,0.9-6.1,1.8-9.1,2.8
				c-15.3,4.9-26.6,11.6-34.8,21h0.9c8.1-8.9,19.2-15.5,34.1-20.3c3-1,6-1.9,9.1-2.8c0.3-0.1,27.8-7.6,40.7-7.6
				c2.2,0,3.8,0.2,4.7,0.6c4.9,2.2,3.1,7.6-0.9,19.9c-1,2.9-2,6.3-3.2,10.2h0.8c1.2-3.8,2.3-7.1,3.2-10
				C319.4,835.8,321.4,829.7,315.8,827.3z"/>
			<path class="st2" d="M285.4,847.2c-3.1,0-6.9,0.6-11.2,1.8c-2.9,0.8-5.7,1.6-8.5,2.6c-5.8,1.9-10.8,4.1-15.2,6.5h2.4
				c3.9-2,8.2-3.9,13.1-5.5c2.7-0.9,5.6-1.7,8.4-2.6c4.2-1.2,7.9-1.7,10.9-1.7c5.6,0,9,2,10.1,6c0.3,1.1,0.4,2.4,0.3,3.8h1.1
				c0.1-1.5,0-2.8-0.3-4.1C295.7,850.9,293.1,847.2,285.4,847.2z"/>
			<path class="st2" d="M355.8,810.7c-1.9-3.9-8.7-5.3-20.8-4.3c-21.5,1.7-44.2,6-69.4,13c-3.3,1-6.7,1.9-9.9,3
				c-22.8,7.4-38.7,18.8-49.1,35.6h0.8c10.3-16.4,26-27.7,48.5-35c3.1-1.1,6.5-2,9.8-3c25.1-7,47.8-11.2,69.2-13
				c2.5-0.2,4.7-0.3,6.8-0.3c7.5,0,11.9,1.4,13.3,4.2c2.5,4.9-4.5,14.1-11.4,23c-1.2,1.6-2.4,3.1-3.6,4.7
				c-4.7,6.3-8.9,12.8-12.7,19.3h0.8c3.8-6.3,7.9-12.7,12.5-18.8c1.2-1.6,2.4-3.1,3.6-4.7C351.6,825.1,358.5,816.1,355.8,810.7z"/>
			<path class="st2" d="M378.5,822.1c10.3-9.6,14.5-17.1,12.4-22.5c-2.6-6.3-14-9.6-33.9-9.6c-6.7,0-14.2,0.3-23.1,1.1
				c-22.6,1.8-46.2,6.2-72.3,13.6c-3.6,1-7.1,2-10.5,3.2c-29.9,9.8-50.1,26-62,50.2h0.8c11.8-23.9,31.8-39.9,61.4-49.6
				c3.4-1.1,7-2.2,10.5-3.1c26-7.2,49.7-11.6,72.2-13.4c8.9-0.8,16.5-1.1,23-1.1c19.6,0,30.9,3.1,33.2,9.1c2,5.1-2,12.4-12.2,21.7
				c-2,1.8-4,3.7-5.7,5.4c-7.7,7.6-14.4,14.3-19.5,21c-2.5,3.3-4.8,6.7-7.1,10.1h0.8c2.2-3.3,4.4-6.6,6.9-9.8
				c4.9-6.7,11.6-13.2,19.4-20.9C374.5,825.8,376.5,824,378.5,822.1z"/>
			<path class="st2" d="M-219.7,118.5c16.6,8.4,32.8,12.4,49.7,12.4c9.5,0,29.8-3.8,47.6-10.1c15.6-5.6,34.1-14.7,34.2-27.2
				c0-14.6-28.6-22.7-45.7-27.5c-3.8-1.1-7-1.9-9.1-2.7c-30.7-11-61.1-24.7-95.9-43.5c-13.2-7.1-26.1-14.1-39-20.3v0.8
				c12.6,6.2,25.5,13.1,38.6,20.2c34.8,18.7,65.2,32.6,96,43.5c2.2,0.8,5.4,1.7,9.1,2.8c17,4.8,45.3,12.8,45.3,26.9
				c-0.1,21.4-61.5,36.7-81.1,36.7c-16.8,0-32.9-4.1-49.4-12.4c-13.7-6.9-26.8-16.7-39.5-26.1c-6.1-4.5-12.5-9.3-19-13.9v0.9
				c6.5,4.5,12.6,9,18.6,13.6C-246.6,101.8-233.5,111.5-219.7,118.5z"/>
			<path class="st2" d="M-212.6,104.7c14.3,7.2,28.2,10.8,42.5,10.8c12.5,0,28.7-3.7,35-11.6c2.7-3.4,3.4-7.5,2.3-12.1
				c-2.8-10.7-25.6-18.3-42.3-23.8c-5.4-1.8-10-3.3-12.9-4.6c-19.3-8.8-38.2-19-56.6-28.9l-2-1.1c-10.7-5.7-21.1-11.3-31.3-16.6v0.8
				c10.1,5.2,20.4,10.8,31,16.4l2,1.1c18.4,9.9,37.4,20.2,56.7,28.9c2.9,1.3,7.5,2.9,12.9,4.6c15.6,5.2,39.1,13,41.9,23.3
				c1.2,4.3,0.4,8.2-2.2,11.5c-6.1,7.7-22.2,11.3-34.4,11.3c-14.2,0-28-3.4-42.2-10.7c-12.5-6.2-25-15.6-37.1-24.6
				c-8.7-6.6-18.2-13.6-28.5-20.1V60c10.1,6.6,19.5,13.4,28.1,19.9C-237.7,89-225.1,98.3-212.6,104.7z"/>
			<path class="st2" d="M120.2-121.4c1.1-4.4,2.3-8.8,3.2-13.2h-1.2c-1,4.3-2,8.6-3.2,12.9c-2,8.2-4.2,16.7-5.9,25.3
				c-5.7,28.8-10.7,66.5,2.2,103.2c5.2,14.8,18.2,27,29.6,37.8c10.2,9.6,18.9,17.8,18.2,24.7c-0.3,3.2-2.7,6-7.2,8.6
				c-2,1.2-5.6,1.8-10.5,1.8c-17.2,0-47.6-7.4-70-14.8C50.8,56.8,20.7,44,16.1,28.6c-1.5-4.9-0.2-9.9,3.7-14.7
				C24.7,7.6,30,2.1,35.3-3.1c10.1-10.4,19.8-20.3,26.1-35c9.1-20.9,10.2-42.6,3.3-64.7c-1.7-5.4-3.3-10.2-4.8-14.6
				c-2.2-6.5-4.1-12.1-5.4-17.2h-1.2c1.3,5.3,3.3,11,5.5,17.5c1.5,4.3,3.2,9.3,4.8,14.6c6.9,21.8,5.7,43.3-3.2,63.9
				c-6.3,14.4-15.9,24.2-26,34.6C29.3,1.4,23.9,7,18.9,13.2c-4.1,5.2-5.4,10.4-3.9,15.7c4.8,15.8,35.3,28.8,59.9,37
				c22.6,7.4,53,15,70.5,15c5.2,0,8.9-0.6,11.2-2c4.8-2.8,7.4-5.9,7.7-9.5c0.9-7.4-8.2-15.9-18.5-25.6
				c-11.4-10.7-24.2-22.7-29.4-37.3c-12.7-36.4-7.7-73.9-2-102.5C116-104.8,118.2-113.2,120.2-121.4z"/>
			<path class="st2" d="M-65.6,394.6c-1.1,1.8-2.2,3.6-3.1,4.8c-11.3,15.7-24.7,29.7-39.9,45c-2,2-4.1,4.1-6.2,6.2
				c-12.5,12.4-25.4,25.2-33.1,40.3c-3,5.9-3.9,10.4-2.7,13.2c0.5,1.3,1.5,2.2,2.9,2.5c0.5,0.2,1.2,0.2,1.9,0.2
				c2.8,0,6.5-1.3,10.7-3.8c8.3-4.9,16.1-11.1,23.8-16.9c6.2-4.8,12.7-9.8,19.4-14.2c26.9-17.5,44.5-29.1,52.9-61.7
				c1.7-6.8,2.7-22.2-2.6-28.8c-1.8-2.3-4.2-3.3-7.2-3.2C-55.8,378.6-61.5,387.8-65.6,394.6z M-48.4,378.8c2.5,0,4.5,1,6.1,3
				c5.2,6.5,4.2,21.6,2.5,28.3c-8.3,32.4-25.9,43.9-52.6,61.3c-6.7,4.3-13.1,9.4-19.4,14.2c-7.6,5.9-15.5,11.9-23.8,16.9
				c-5.1,3-9.4,4.2-11.9,3.4c-1.2-0.3-2-1.1-2.5-2.2c-1.2-2.6-0.2-7.1,2.7-12.7c7.6-15.1,20.6-27.9,33-40.2c2.2-2.2,4.2-4.2,6.2-6.2
				c15.2-15.3,28.6-29.3,39.9-45.1c1-1.3,2-3,3.1-4.8c4.1-6.6,9.6-15.7,16.1-16C-48.7,378.8-48.5,378.8-48.4,378.8z"/>
			<path class="st2" d="M-205.5,91.1c4.5,2.3,17,6.2,26.1,6.2c3.2,0,5.7-0.5,7.4-1.6c3.6-2.3,5.2-4.4,4.8-6.5
				c-0.8-4.6-11-7.4-19.3-9.7c-3.4-1-6.3-1.7-8-2.5c-19.7-9-39-19.4-57.6-29.4l-2-1.1c-8.1-4.3-16-8.6-23.9-12.7v1.3
				c7.6,4,15.4,8.2,23.3,12.5l2,1.1c18.6,10,37.9,20.4,57.7,29.5c1.7,0.8,4.7,1.6,8.2,2.6c7.5,2,17.9,4.8,18.5,8.8
				c0.2,1.6-1.2,3.4-4.3,5.4c-1.5,1-3.8,1.4-6.8,1.4c-8.8,0-21.4-4-25.6-6.1c-11.2-5.7-23.1-14.5-34.8-23.2
				c-11.1-8.3-23.7-17.6-38.1-26.1v1.3c14.2,8.4,26.6,17.6,37.4,25.7C-228.8,76.5-216.8,85.4-205.5,91.1z"/>
			<path class="st2" d="M-239.2,510.8c2.7-57.1,42.7-102.2,75-138.5l2.6-2.9c38.3-43.1,36.7-58.1,18.7-75.5
				c-19.7-19.2-50.8-47.9-92.7-76.5c-14.3-9.8-28.5-18.7-42.2-26.7v1.3c13.4,7.9,27.4,16.7,41.5,26.3c42,28.6,73,57.2,92.6,76.4
				c17.4,16.9,18.8,31.6-18.8,74l-2.6,2.9c-32.3,36.4-72.5,81.6-75.2,139.1c-2.6,54-23.2,69.9-37.6,74.3v1.2
				C-263.2,581.8-241.8,565.9-239.2,510.8z"/>
			<path class="st2" d="M410.9,791.4c-6.6-13.8-33.2-16.7-54.4-16.7c-7.4,0-15.5,0.3-24,1.1c-23.6,1.9-48.2,6.6-75.3,14.1
				c-3.8,1.1-7.5,2.2-11.2,3.3c-23.3,7.6-41.3,18.6-54.9,33.7c-8.2,9-14.5,19.4-19.5,31.2h0.8c13-31.5,36.9-52.2,73.8-64.2
				c3.7-1.2,7.4-2.4,11.2-3.3c27.1-7.5,51.6-12.2,75.2-14c8.4-0.6,16.5-1.1,23.9-1.1c21,0,47.3,2.8,53.8,16.4
				c7.1,14.8-10.1,30.7-21.4,41.2c-1.9,1.8-3.8,3.4-5.3,4.9c-7.3,7.2-13.6,13.4-18,19.3c-0.2,0.3-0.5,0.6-0.8,1h0.9
				c0.1-0.2,0.3-0.4,0.4-0.6c4.3-5.7,10.5-11.9,17.9-19.2c1.5-1.5,3.3-3.2,5.3-4.9C400.8,822.7,418.1,806.7,410.9,791.4z"/>
			<path class="st2" d="M-51.2,755.8c-10-2.5-20.7-2.7-31.1-2.8c-6-0.1-12.2-0.2-18.1-0.8c-28.2-2.7-52.4-9-76.2-20.2
				c-25.8-12.2-44.1-23.2-58.9-32.3c-5.4-3.2-10.5-4.9-15.6-4.9c-9.4,0-19,6-26.9,16.1v1.1c7.7-10.3,17.4-16.6,26.9-16.6
				c4.9,0,10,1.6,15.3,4.8c14.7,8.9,33,20.1,59,32.3c23.8,11.2,48.1,17.6,76.4,20.2c5.9,0.5,12.2,0.6,18.2,0.8
				c10.3,0.1,21,0.3,30.9,2.8c15.4,3.9,14.8,15,12.7,28c-2.6,15.5-4.7,30.9-2.6,48.3c1.1,8.7,2.8,17.1,4.7,25.4h0.6
				c-2.2-8.2-3.8-16.7-4.8-25.4c-2.2-17.3,0-32.7,2.6-48.1C-35.9,771.7-35.3,759.9-51.2,755.8z"/>
			<path class="st2" d="M8.4-115.6C23.8-68.4,30-42.8-8.2-21.2c-6.2,3.6-13.3,6.2-21.1,7.9c-6.6,1.4-13.8,2-21.5,2
				c-70.9,0-168.4-58.3-220.7-89.6l-1.8-1.1c-1.6-1-3.1-1.9-4.7-2.8v1.3c1.3,0.8,2.7,1.6,4.1,2.5l1.8,1.1
				C-219.6-68.5-122-10.2-50.8-10.2c7.7,0,15.1-0.8,21.7-2.2c7.9-1.6,15.1-4.3,21.4-8c39-21.9,32.7-47.9,17.1-95.5
				c-1.9-6-4-12.3-5.9-18.7H2.4C4.3-128,6.4-121.7,8.4-115.6z"/>
			<path class="st2" d="M-81.1-122.2c0.4,1.6,1.1,3.7,1.8,6c2,6.6,1.6,11-1.1,13.1c-1.4,1.1-3.3,1.6-5.9,1.6
				c-11,0-29.2-9.6-35.2-12.8c-2.9-1.5-5.2-2.7-6.9-3.6l-9.3-4.5c-8.4-4.1-16.7-8.2-24.6-12.3h-1.4c8.3,4.3,16.9,8.6,25.8,12.9
				l9.1,4.4c1.7,0.9,3.9,2,6.9,3.6c6,3.2,24.3,12.8,35.5,12.8c2.7,0,4.8-0.6,6.3-1.7c3-2.4,3.4-7,1.3-13.8c-0.8-2.3-1.3-4.3-1.8-6
				c-1.1-4-2.2-8.1-3.2-12.2h-0.6C-83.4-130.4-82.2-126.3-81.1-122.2z"/>
			<path class="st2" d="M-12.8-108.9c6.2,19,12.2,42.9,2.9,58.7c-4.6,7.9-12.7,13-24,15.4c-5.1,1.1-10.8,1.6-16.9,1.6
				c-64.7,0-158.7-56.2-209.2-86.4l-9.4-5.6c-2.9-1.7-5.7-3.3-8.7-4.7v0.8c2.8,1.4,5.6,3,8.4,4.6l9.4,5.6
				c50.6,30.1,144.6,86.4,209.5,86.4c6.1,0,11.9-0.5,17-1.6c11.5-2.4,19.8-7.6,24.5-15.6c9.5-16,3.4-40.1-2.8-59.3
				c-2.7-8.2-5.4-16.8-7.6-25.5h-0.6C-18.2-125.8-15.5-117.2-12.8-108.9z"/>
			<path class="st2" d="M-65.9-126.2c0.4,1.5,1,3.3,1.6,5.5c3.2,10.5,8.2,26.4,3.6,33.7c-1.9,3-4.8,4.9-8.7,5.8
				c-1.6,0.3-3.3,0.5-5.3,0.5c-16.4,0-41-13-54.2-19.9c-2.6-1.4-4.7-2.5-6.5-3.3l-1.2-0.5c-1.3-0.6-2.5-1.2-3.7-1.7l-4.3-2
				c-17.9-8.6-34.9-17.4-50.5-26.1h-1.4c15.9,8.9,33.2,18,51.5,26.8l4.3,2c1.1,0.5,2.4,1.2,3.7,1.7l1.2,0.5c1.6,0.9,3.9,1.9,6.5,3.3
				c13.2,7,38,20,54.6,20c1.9,0,3.8-0.2,5.4-0.5c4.1-0.9,7.2-2.9,9.1-6.1c4.8-7.5-0.1-23.6-3.4-34.2c-0.6-2.2-1.2-4-1.6-5.5
				c-0.8-2.7-1.5-5.5-2.2-8.2h-0.6C-67.4-131.8-66.7-129-65.9-126.2z"/>
			<path class="st2" d="M-50.8-130.2c3.2,11.7,6.5,23.9,6.8,36.5c0.4,16.2-6,25.5-19.2,27.7c-1.9,0.3-4.1,0.4-6.3,0.4
				c-22.8,0-55.4-16-73-24.6c-1.7-0.9-3.3-1.6-4.7-2.3l-4.3-2c-27.3-13.1-52.6-26.8-74.2-40h-1.3c21.9,13.4,47.6,27.2,75.3,40.6
				l4.3,2c1.4,0.6,3,1.5,4.7,2.3c17.5,8.6,50.4,24.6,73.3,24.6c2.3,0,4.4-0.2,6.5-0.4c13.6-2.2,20.1-11.7,19.7-28.3
				c-0.4-12.5-3.7-24.7-6.9-36.6c-0.4-1.4-0.8-2.8-1.2-4.2h-0.6C-51.5-133.1-51.2-131.7-50.8-130.2z"/>
			<path class="st2" d="M-27.6-104.2c0.3,1,0.6,2,1,3c3.6,10.8,7.3,21.8,1.3,32.5c-4.9,8.9-15.2,16.1-25.8,18.5
				c-1.1,0.2-2.2,0.4-3.2,0.5c-2.7,0.3-5.5,0.4-8.3,0.4c-30.1,0-65.4-17.1-91.2-29.6l-4.3-2c-33.1-15.9-65.2-35.1-93.4-52
				c-1.2-0.8-2.3-1.3-3.1-1.8h-1.3c2.2,1.3,4.1,2.5,4.1,2.5c28.3,16.9,60.3,36,93.4,52.1l4.3,2c25.8,12.5,61.2,29.6,91.6,29.6
				c2.9,0,5.7-0.1,8.4-0.4c1.1-0.1,2.3-0.3,3.3-0.5c10.9-2.4,21.2-9.7,26.3-18.8c6.1-11,2.4-22.2-1.3-33c-0.3-1-0.6-2-1-3
				c-3.1-9.7-6.2-19.8-8.8-30.2h-0.6C-34-124.1-30.9-113.8-27.6-104.2z"/>
			<path class="st2" d="M-52.1,357.9c-9.8,2.4-18.4,15.8-25.4,26.6c-2.4,3.8-4.7,7.3-6.7,9.9c-11.1,14.1-23.7,26.9-35.8,39.2
				c-3.1,3.2-7.1,6.8-11.4,10.7c-12.5,11.4-28.1,25.6-32.8,38.6c-4,11-1.6,21.3,0.6,31.4c1.8,8.3,3.8,16.8,2.3,25.7
				c-1,5.5-4.3,11-8,16.7c-4.3,6.9-8.7,14-9,21.6c-0.1,2.6,0.3,5.2,1.2,7.6c3,8.2,6,11.9,9.7,11.9c3.7,0,7.6-3.8,13.4-12.8
				c5.6-8.7,7.9-18.8,9.9-28.5c2.2-9.8,4.3-19.9,10-28.7c10.8-16.7,29.7-28.9,46.5-39.8c1.4-0.9,2.8-1.8,4.2-2.7
				c27.8-18.1,49.7-32.4,59.5-70.9c2.6-10.2,1.9-36.2-8.6-49.5C-37.4,358.3-44.2,355.9-52.1,357.9z M-33.2,365.4
				c9.5,11.9,11.3,37.1,8.4,48.5c-9.7,38.1-31.5,52.3-59.1,70.3c-1.4,0.9-2.8,1.8-4.2,2.7c-16.9,10.9-35.9,23.2-46.8,40.1
				c-5.8,8.9-8,19.2-10.1,29.1c-2.2,9.7-4.3,19.7-9.8,28.2c-3.9,6.1-8.5,12.4-12.5,12.4c-3.1,0-5.9-3.7-8.7-11.3
				c-0.9-2.4-1.3-4.7-1.2-7.2c0.2-7.3,4.6-14.3,8.8-21.1c3.7-5.8,7.1-11.4,8.1-17.1c1.6-9.1-0.4-17.8-2.3-26.1
				c-2.4-10.3-4.5-20.2-0.6-30.8c4.6-12.7,20.1-26.8,32.5-38.2c4.2-3.9,8.2-7.5,11.4-10.8c12.2-12.4,24.7-25.1,35.9-39.3
				c2-2.6,4.3-6.1,6.8-10c6.8-10.5,15.3-23.8,24.6-26c1.7-0.4,3.3-0.6,4.9-0.6C-41.5,358.3-37,360.7-33.2,365.4z"/>
			<path class="st2" d="M-41.8,310c-5.4-7.5-10-8.5-15-9.6c-3.4-0.8-6.9-1.4-10.9-4.4l-0.3-0.3c-11.4-12.7-49.8-53.8-62.7-53.8
				c-1.5,0-2.7,0.5-3.6,1.6c-1.7,2.3-1.6,6.7,0.2,13.7c1.2,4.2,12.1,9.9,23.5,15.9c9.6,5.1,19.5,10.3,22.8,14.2
				c3,3.6,7,8.4,6.7,10.1c-0.1,0.4-0.6,0.8-1.5,1.2c-2,1-5.1,2.5-3.4,9.5c1.1,4.8,4.2,9.6,7.1,14.2c2.7,4.3,5.3,8.4,6.3,12.4
				c2.9,10.9-15.2,30.8-27.1,43.9c-4,4.3-7.3,8.1-9.6,11c-8.7,11.4-19.6,21.8-30.1,32.1c-20.4,19.8-41.5,40.2-49,68.5
				c-11.1,42.3-13.3,79.5-6.6,110.8c3.6,16.7,15.9,40,28,40c7.4,0,12.9-8.8,16.1-26.3c12.6-67.1,46.8-89.4,79.9-111
				c29.4-19.2,57.1-37.2,69-84.1c4.5-17.8-2.5-45-11.4-60c-4-6.8-9-10.5-14-14.2c-4.3-3.2-8.4-6.2-11.5-11.1
				c-2.3-3.4-1.8-7.4-1.4-11.6C-39.6,318.3-39,313.8-41.8,310z M-39.9,335.2c3.3,5.1,7.4,8.2,11.8,11.5c4.7,3.6,9.7,7.2,13.6,13.7
				c8.8,14.8,15.6,41.5,11.3,58.9c-11.8,46.4-39.3,64.2-68.3,83.2c-33.5,21.7-68,44.3-80.6,112c-3,16.4-8.1,25-14.6,25
				c-10.2,0-22.6-20.9-26.5-38.8c-6.7-31.1-4.5-68.1,6.6-110.2c7.3-27.9,28.3-48.2,48.5-67.8c10.5-10.2,21.4-20.8,30.2-32.3
				c2.2-2.8,5.5-6.6,9.5-10.9c12.9-14.2,30.6-33.7,27.5-45.4c-1.1-4.2-3.8-8.4-6.6-12.8c-2.9-4.5-5.8-9.1-6.9-13.8
				c-1.3-5.8,0.8-6.8,2.6-7.7c1-0.5,2-1,2.4-2.3c0.3-1.6-0.8-4.1-7-11.4c-3.6-4.2-13.6-9.5-23.3-14.5c-10.2-5.4-21.7-11.5-22.7-15
				c-2.2-8-1.5-11.1-0.5-12.4c0.5-0.6,1.3-1,2.3-1c9.8,0,38.3,27.4,61.7,53.2c0.3,0.3,0.4,0.4,0.4,0.5c4.4,3.2,8.2,4.1,11.6,4.8
				c4.8,1,8.9,1.8,14,8.9c2.4,3.3,1.9,7.4,1.5,11.7C-41.9,326.8-42.4,331.3-39.9,335.2z"/>
			<path class="st2" d="M-277.9,166.8c75.6,42.1,157.2,109.1,172,142.4c8.9,20-12.7,43.9-40,74.1c-31.1,34.3-69.7,77.1-72.2,128.5
				c-2.9,62.6-34.4,88.2-59.8,96.1v1.6c25.9-7.7,58.3-33.8,61.3-97.6c2.4-50.8,40.9-93.3,71.8-127.5c27.8-30.7,49.6-54.9,40.3-75.7
				c-15-33.6-97.3-101.1-173.4-143.4V166.8z"/>
			<path class="st2" d="M103.1-134.5l0.1-0.1h-1c-1.4,1.5-2.8,3-3.8,5.3c-2.8,6.5-2,13.1-1.2,19.6c0.4,3.7,0.9,7.3,0.6,11
				c-0.3,5.7-1.5,11.7-2.6,17.5c-1,4.7-1.9,9.7-2.4,14.5c-2.9,29.2-0.3,55.5,7.7,78.4c1.6,4.7,8.2,12.1,15.1,19.8
				c8.8,9.9,17.9,20.1,18.3,26.3c0.1,1.4-0.3,2.5-1.1,3.3c-2.4,2.5-8.7,2.9-18.9,1.4c-7.4-1.2-14.5-4.2-21.4-7.1
				c-4-1.7-8.2-3.6-12.4-4.8c-1.2-0.4-2.4-0.8-3.7-1.2c-15-4.8-35.3-11.5-38.3-23.1c-1.4-5.5,1.3-11.8,8.2-18.8
				c10.8-11,21.7-22.3,29.3-39.5C83-48.5,91.3-80.6,88-97.9c-0.6-3.6-2.2-5.9-3.7-8.3c-1.9-3.1-3.8-6-2.9-11.4
				c0.6-3.9,2.2-6.2,3.6-8.3c1.6-2.5,3.1-4.6,2.7-8.8h-0.6c0.4,4-1,6-2.6,8.4c-1.4,2-3,4.4-3.7,8.5c-0.9,5.6,1.1,8.6,3,11.8
				c1.4,2.3,2.9,4.6,3.6,8.1c3.1,17.2-5.1,49.1-12.3,65.5C67.7-15.3,56.6-4.1,46,6.9c-7,7.1-9.8,13.7-8.3,19.5
				c3,11.9,23.7,18.6,38.7,23.6c1.3,0.4,2.5,0.8,3.7,1.2c4.1,1.4,8.3,3.1,12.3,4.8c6.9,3,14.1,6,21.6,7.2c4,0.6,7.4,1,10.3,1
				c4.6,0,7.6-0.9,9.3-2.5c1-1,1.4-2.3,1.3-3.9c-0.4-6.5-9.6-16.7-18.4-26.7c-6.9-7.6-13.3-15-15-19.6c-8-22.8-10.5-49.1-7.6-78.1
				c0.4-4.7,1.4-9.7,2.4-14.4c1.2-5.8,2.4-11.8,2.6-17.5c0.2-3.8-0.2-7.5-0.6-11.1c-0.8-6.7-1.5-13,1.2-19.3
				C100.2-131.4,101.7-133,103.1-134.5z"/>
			<path class="st2" d="M29.6-122.2C43.7-78.8,58.4-33.8,3-2.3C-5.3,2.5-14.5,5.9-24.6,8c-8.1,1.7-16.9,2.6-26.1,2.6
				c-74.9,0-168.7-54.8-227.1-89.7v1.8C-219.3-42.4-125.8,12-50.8,12c9.4,0,18.3-0.9,26.5-2.6C-14.1,7.3-4.6,3.9,3.8-1
				C60.3-33,45.4-78.7,31-122.7c-1.3-4-2.6-8-3.9-11.9h-1.6C26.8-130.5,28.2-126.3,29.6-122.2z"/>
			<path class="st2" d="M-62.8,776.7c-8.2-7.4-20.3-8.1-31.1-8.6c-2.8-0.1-5.4-0.3-7.9-0.5c-30.1-2.8-56.1-9.7-81.5-21.6
				c-21.8-10.2-38.8-19.7-53.4-29.5c-4-2.7-8.1-4.1-12.1-4.1c-9.1,0-17.9,7.1-23.1,18.9c-2,4.5-4,8.9-6,13.2v1.6
				c2.3-4.8,4.4-9.7,6.7-14.6c5.2-11.6,13.7-18.6,22.5-18.6c3.9,0,7.9,1.3,11.7,4c14.5,9.9,31.5,19.3,53.5,29.6
				c25.5,11.9,51.4,18.8,81.7,21.7c2.6,0.2,5.2,0.3,8,0.5c10.7,0.5,22.7,1.2,30.8,8.4c9.3,8.4,8,24.4,6.8,38.5
				c-0.5,6.9-1.1,13.4-0.4,18.8c1,8,2.9,15.8,4.9,23.6h0.6c-2-7.7-4-15.6-5.1-23.6c-0.6-5.3-0.1-11.8,0.4-18.7
				C-54.6,801.5-53.3,785.4-62.8,776.7z"/>
			<path class="st2" d="M-272.5,814.9c-1.9-0.8-3.8-1.5-5.4-2.4v0.8c1.6,0.8,3.3,1.5,5.2,2.2c1,0.3,1.9,0.8,2.9,1.2
				c14.4,6,25.5,11.6,34.6,17.8c11.6,7.6,24.6,15.6,38.8,23.6h1.4c-14.5-8.2-28-16.2-39.8-24.1c-9.3-6.1-20.3-11.8-34.8-17.8
				C-270.6,815.7-271.6,815.4-272.5,814.9z"/>
			<path class="st2" d="M-243.9,847.3c5.4,3.6,11,7.1,16.9,10.8h1.3c-6.2-3.8-12.3-7.5-17.9-11.3c-8-5.3-21.2-12.1-34.3-17.3v0.8
				C-264.9,835.5-251.8,842.2-243.9,847.3z"/>
			<path class="st2" d="M-256.9,324.6c-1.1-7.1-6.1-13.4-15.3-19.5c-1.8-1.2-3.8-2.5-5.7-3.8v0.8c1.8,1.2,3.6,2.4,5.4,3.6
				c9,5.8,13.9,12.1,15,18.9c1.8,11.4-7.1,23.2-17.9,36.4c-0.8,0.9-1.5,1.9-2.4,3.1v1.2c1.1-1.5,2-2.8,2.9-3.9
				C-264,348.3-255.1,336.3-256.9,324.6z"/>
			<path class="st2" d="M-261,854.4L-261,854.4c-5.4-3.2-11.1-6.1-16.9-8.7v0.8c5.7,2.5,11.2,5.4,16.5,8.5c0,0,2.8,1.6,5.3,3.1h1.3
				C-259.5,855.3-260.7,854.5-261,854.4z"/>
			<path class="st2" d="M-124.9-132.5c4.2,2,10,4.9,15.1,4.9c2.2,0,4-0.5,5.5-1.5c0.1-0.1,0.2-0.2,0.3-0.3c1.6-1.3,2.7-3.2,3.4-5.4
				h-1.2c-0.6,1.8-1.5,3.4-2.9,4.5c-0.1,0.1-0.2,0.1-0.3,0.2c-1.3,0.9-3,1.3-4.8,1.3c-4.8,0-10.4-2.8-14.5-4.8
				c-0.6-0.3-1.2-0.6-1.7-0.9c0,0-0.3-0.1-0.8-0.3h-2.6l2.8,1.3C-126.1-133-125.5-132.8-124.9-132.5z"/>
			<path class="st2" d="M-114.4,838.2c0.9-2.9,0.5-5.4-0.8-7.4c-3.3-4.9-12.2-6.2-18.6-7.2c-1.1-0.1-2-0.3-3-0.4
				c-0.3,0-0.8-0.1-1.4-0.3c-3.4-0.6-10.4-2-15.7-2c-3.1,0-5.2,0.5-6.1,1.5c-0.5,0.5-0.8,1.2-0.6,1.9c0.3,5.7,9.3,9.3,14.5,11.3
				c0.9,0.3,1.6,0.6,2.2,0.9c1.4,0.6,3,1.4,4.7,2.3c5.5,2.7,11.7,5.7,17,5.7c0.6,0,1.4,0,1.9-0.1
				C-117.5,843.8-115.4,841.7-114.4,838.2z M-120.6,843c-0.5,0.1-1.2,0.1-1.7,0.1c-5.1,0-11.1-3-16.5-5.6c-1.7-0.9-3.3-1.6-4.8-2.3
				c-0.6-0.3-1.4-0.5-2.3-0.9c-5.1-1.9-13.4-5.3-13.7-10.2c0-0.4,0.1-0.6,0.3-1c0.5-0.5,1.8-1.2,5.3-1.2c5.2,0,12.2,1.4,15.5,2
				c0.6,0.1,1.2,0.2,1.5,0.3c0.9,0.1,1.9,0.3,3,0.4c5.9,0.9,14.8,2.2,17.8,6.7c1.2,1.7,1.4,3.8,0.6,6.3
				C-116.5,840.9-118.1,842.6-120.6,843z"/>
			<path class="st2" d="M-70.7,808.7c1.1-6.5,2.2-13.2-2.2-18.3c-5.2-6.1-13.7-6.6-21.2-6.9h-0.8c-2.7-0.1-5.7-0.3-8.6-0.5
				c-32.1-3-59.6-10.3-86.7-23.1c-8.5-4-17-8.6-25.1-13c-4.4-2.5-9-4.9-13.7-7.3l-0.3-0.2c-5.4-2.8-11-5.7-16.7-5.7
				c-3,0-5.7,0.8-8.3,2.5c-9.1,5.8-13.6,17.2-17.8,28.2c-1.9,4.9-3.8,9.7-6,13.8v1.4c2.5-4.4,4.5-9.5,6.7-15
				c4.2-10.9,8.5-22.1,17.5-27.9c2.5-1.6,5.1-2.4,8-2.4c5.6,0,11.1,2.9,16.4,5.6l0.3,0.2c4.6,2.4,9.1,4.9,13.7,7.3
				c8.2,4.4,16.6,9,25.1,13c27.2,12.8,54.9,20.1,86.9,23.1c2.9,0.3,5.9,0.4,8.6,0.5h0.8c7.3,0.3,15.7,0.8,20.7,6.7
				c4.2,4.8,3.1,11.4,2,17.8c-0.3,2-0.6,4-0.9,5.9c-0.6,7.4-1.2,15.1-0.3,21.9c1,7.5,2.6,14.7,4.3,21.6h0.6
				c-1.8-7-3.4-14.2-4.4-21.7c-0.9-6.8-0.2-14.4,0.4-21.8C-71.3,812.7-71,810.7-70.7,808.7z"/>
			<path class="st2" d="M-237.1,332.2c5.8-16.1,0-22.6-26.5-39.8c-2-1.4-4.2-2.7-6.3-4.2c-2.8-1.8-5.4-3.6-8-5.4v0.8
				c2.5,1.7,4.9,3.3,7.6,5.2c2.2,1.4,4.2,2.8,6.3,4.2c26,17,31.8,23.3,26.1,39.1c-5.2,14.2-15.1,26.3-25.6,39
				c-4.8,5.9-9.9,11.9-14.5,18.4v1.2c4.8-6.8,10-13,15.1-19.2C-252.3,358.5-242.3,346.4-237.1,332.2z"/>
			<path class="st2" d="M-100.5,800.1c-7.1-3-14.8-3.8-22.3-4.5c-4.3-0.4-8.7-0.9-12.9-1.6c-21.1-4.2-41.7-11-61.2-20.1
				c-8.9-4.2-17.5-8.9-25.9-13.4c-1.2-0.6-2.6-1.5-4-2.5c-4.8-3-10.8-6.8-16.1-6.8c-2,0-3.8,0.5-5.4,1.6c-4.1,2.8-6,8.5-7.7,13.4
				c-0.4,1.3-0.9,2.5-1.3,3.4c-0.8,1.8-2.2,4.5-3.8,7.2c-3.8,6.7-8.4,15-6.7,19.9c1.7,5.1,8.4,7.7,13.7,10c1.2,0.5,2.4,1,3.3,1.4
				c9.1,4.3,17.1,8.6,24.2,13.3c17.8,11.7,39.1,24.1,62.7,36.4h1.4c-24.1-12.5-45.8-25-63.8-36.9c-7.2-4.7-15.2-9.1-24.3-13.4
				c-1-0.4-2.2-1-3.3-1.4c-5.3-2.2-11.7-4.8-13.3-9.6c-1.6-4.7,3-12.8,6.7-19.4c1.6-2.9,3-5.4,3.8-7.3c0.4-1.1,0.9-2.3,1.3-3.6
				c1.7-4.9,3.6-10.4,7.4-13.1c1.4-1,3.1-1.5,4.9-1.5c5.2,0,11.1,3.7,15.8,6.7c1.5,1,2.8,1.8,4.1,2.5c8.3,4.5,16.9,9.3,25.9,13.4
				c19.5,9.1,40.1,15.9,61.3,20.2c4.2,0.9,8.7,1.3,12.9,1.6c7.4,0.6,15.1,1.4,22.1,4.4c12.4,5.3,12.3,15.7,12.3,26.7
				c0,3.7,0,7.3,0.4,11c0.9,7,2.3,13.6,3.8,19.8h0.6c-1.5-6.3-2.9-12.9-3.8-19.9c-0.4-3.6-0.4-7.3-0.4-10.9
				C-87.8,816.1-87.8,805.6-100.5,800.1z"/>
			<path class="st2" d="M-130.6,856.3c-33.2-16-63.2-32.6-86.5-48.1c-3.1-2-6.5-3.8-9.7-5.4c-4.4-2.3-9-4.6-13-7.9
				c-5.3-4.4-6.7-8.8-4.4-14.2c1.7-4.2,4.7-6.2,9.1-6.2c7.3,0,16.9,5.8,24,10c2.8,1.6,5.2,3.1,7.1,4c20.7,9.7,42.6,16.9,65.1,21.4
				c5.1,1,9.9,1.5,14.6,1.9c0.9,0.1,1.6,0.1,2.5,0.2c5.6,0.4,12.1,1,15.8,5.1c3.8,4.1,4.2,12.5,4.5,19.2c0.1,1.8,0.1,3.7,0.3,5.2
				l0.1,0.9c0.4,4.4,1.1,11-0.5,15.8h1.2c1.5-4.9,1-11.5,0.5-15.9l-0.1-0.9c-0.1-1.5-0.2-3.2-0.3-5.1c-0.3-6.9-0.6-15.5-4.7-19.9
				c-4.1-4.4-10.8-4.9-16.6-5.4c-0.9-0.1-1.7-0.1-2.5-0.2c-4.6-0.4-9.5-0.9-14.4-1.9c-22.4-4.4-44.2-11.6-64.8-21.3
				c-1.8-0.9-4.2-2.3-7-4c-7.2-4.3-17-10.2-24.5-10.2c-4.8,0-8.2,2.4-10.1,6.9c-2.5,5.8-1,10.7,4.7,15.4c4,3.3,8.7,5.7,13.2,8
				c3.2,1.6,6.5,3.3,9.6,5.3c23.5,15.5,53.4,32.2,86.6,48.2c0.6,0.3,1.2,0.5,1.6,0.8h2.6C-128.1,857.4-130.6,856.3-130.6,856.3z"/>
			<path class="st2" d="M-60.1,415.2h-0.1c-3.2,0-6.5,4-8.8,6.9c-0.5,0.6-1,1.2-1.4,1.6c-2.3,2.5-4.4,5.2-6.5,7.6
				c-1.3,1.6-2.7,3.3-4.1,4.9l-0.2,0.2c-4.5,5.3-6.3,8.6-5.6,10.4c0.2,0.5,0.6,1.1,1.9,1.2c0.2,0,0.3,0,0.5,0h0.1
				c8.9-0.2,16.2-8.2,19.8-12.9c3.3-4.5,5.8-9.4,6.6-13.4c0.2-1,0.8-4.1-0.5-5.7C-58.7,415.6-59.4,415.3-60.1,415.2z M-58.8,421.7
				c-0.9,3.9-3.1,8.6-6.5,13c-3.4,4.6-10.4,12.3-18.9,12.5l-0.1,0.5v-0.5c-0.1,0-0.3,0-0.4,0c-0.8-0.1-1-0.4-1-0.5
				c-0.2-0.6-0.2-2.7,5.4-9.3l0.2-0.2c1.4-1.6,2.7-3.2,4.1-4.9c2-2.6,4.2-5.2,6.5-7.6c0.4-0.4,0.9-1.1,1.4-1.7c2-2.6,5.3-6.5,8-6.5
				l0,0c0.4,0,0.8,0.2,1.1,0.5C-58.4,417.8-58.5,420.1-58.8,421.7z"/>
			<path class="st2" d="M176.5,638.7c29.8-3.3,61.7-37.2,62.1-66c0.6-44-25.1-79.2-50-113.2c-4.2-5.8-8.6-11.7-12.7-17.6l-2.5-3.6
				c-11.7-16.6-25-35.4-29.3-55.7c-3.7-17.2-9.3-57.3-3.1-71.1c4.4-10.1,17.1-15.9,29.5-21.5c8.5-3.9,16.5-7.5,22.2-12.6l0.2-0.2
				c19.3-17.1,19.3-17.1,32.4-17.5c4-0.1,8.9-0.3,15.9-1c9.4-0.9,14.8-2.2,18.9-3.2c2.6-0.6,4.4-1.1,6-1.1c4.1,0,7.4,2.8,18.6,12.2
				c33.1,27.5,32.5,75.4,31.8,121.8c-0.8,58.3-1.5,118.6,65.5,137.7c9.7,2.8,19,4.1,28,4.1c25.3,0,46.7-11.1,62.1-32.1
				c22.6-30.8,28.6-78.8,15-119.4C455.6,284.7,380.2,231,299,179.8c-73.7-46.5-144-59.3-204-67.7c-4.3-0.6-8.5-0.9-12.3-0.9
				c-24.3,0-35.9,12.2-50.6,27.5c-5.6,5.9-11.4,12.1-18.6,18.3c-8.3,7.1-18.7,12.1-28.9,16.7c-16.7,7.7-32.3,15-38.7,31.1
				c-13.7,34.3,20,61,49.7,84.6c13.8,10.9,26.8,21.2,34.3,31.5c30.1,40.9,21.2,109.7-6.2,148.5c-8.5,12.1-25,27-42.3,42.8
				c-28.7,26.3-61.2,56-67,80.9c-2.7,11.7-2,19.9,2.2,25.1c3.4,4.3,9.4,6.3,17.9,6.3c14.1,0,34.3-5.7,55.7-11.7
				c26.1-7.4,55.7-15.8,81-15.8c12.1,0,22.1,1.8,30.5,5.6c9.7,4.4,18,10.7,25.9,16.8c13.1,10,25.6,19.6,43.1,19.6
				C172.7,639,174.5,638.9,176.5,638.7z M102.1,601.7c-8.6-3.9-18.7-5.7-31-5.7c-25.4,0-55.1,8.4-81.3,15.8
				c-21.3,6-41.4,11.7-55.4,11.7c-8.2,0-13.8-1.9-17-5.9c-4-4.8-4.5-12.7-1.9-24.1c5.7-24.6,38.1-54.2,66.7-80.3
				c17.4-15.8,33.8-30.9,42.4-43c27.5-39.1,36.7-108.5,6.2-149.8C23,310,10,299.7-3.7,288.7c-29.4-23.3-62.7-49.8-49.3-83.4
				c6.3-15.7,21.7-22.9,38.1-30.6c10.2-4.7,20.8-9.7,29.2-16.9c7.2-6.2,13-12.4,18.7-18.3c14.4-15.2,25.9-27.2,49.7-27.2
				c3.8,0,7.9,0.3,12.2,0.9c59.9,8.4,130,21.1,203.6,67.6C379.3,231.9,454.6,285.5,486,379c13.6,40.3,7.6,88-14.7,118.5
				c-15.2,20.7-36.4,31.6-61.2,31.6c-8.8,0-18.1-1.4-27.7-4.1c-29.7-8.5-48.5-25.8-57.5-53.2c-8.1-24.4-7.6-54.4-7.2-83.5
				c0.6-46.6,1.2-94.8-32.3-122.7c-16-13.3-16.5-13.6-25.7-11.3c-4,1-9.5,2.3-18.7,3.1c-6.9,0.6-11.8,0.9-15.8,1
				c-13.6,0.4-13.6,0.4-33.1,17.9l-0.2,0.2c-5.5,4.9-13.4,8.5-21.8,12.4c-12.5,5.7-25.4,11.6-30,22.2c-6.2,14.1-0.6,54.4,3.1,71.8
				c4.4,20.6,17.8,39.5,29.5,56.2l2.5,3.6c4.1,5.9,8.5,11.8,12.7,17.6c24.7,33.9,50.5,68.9,49.8,112.5
				c-0.4,28.3-31.8,61.5-61.1,64.9c-1.8,0.2-3.8,0.3-5.5,0.3c-17.2,0-29.5-9.4-42.5-19.4C120.3,612.4,112,606.1,102.1,601.7z"/>
			<path class="st2" d="M731.6-129.9c-3.3-1.7-6.8-3.3-10.3-4.7h-1.8c4.1,1.6,8.2,3.4,12.2,5.5V-129.9z"/>
			<path class="st2" d="M701,299c-1.2-0.9-2.9-2.4-5.2-4.2c-8.5-7.3-22.8-19.6-32.9-19.6c-4,0-6.9,1.8-8.7,5.6
				c-2.4,4.6,2.8,15.4,6.2,22.5c0.9,1.7,1.5,3.2,2,4.3c1,2.3,1.7,4.3,2.5,6.1c4.7,12.3,9.7,25,13.3,38.7c0.4,1.4,0.8,3,1.2,4.7
				c1.7,7.3,3.8,16.5,8.9,21c2,1.7,4,2.9,5.8,3.4c0.9,0.2,1.7,0.3,2.5,0.3c6.1,0,10.3-6.8,14.3-13.4c1-1.5,1.8-3,2.8-4.5l0.9-1.4
				c15.5-23.1,24.7-37.1-3.7-56.5C708.3,304.3,704.8,301.7,701,299z M713.8,362.1l-0.9,1.4c-1,1.4-1.9,3-2.9,4.5
				c-3.9,6.3-8,12.9-13.3,12.9c-0.8,0-1.4-0.1-2.2-0.3c-1.7-0.5-3.4-1.6-5.4-3.2c-4.8-4.2-6.9-13.1-8.6-20.3
				c-0.4-1.7-0.8-3.3-1.2-4.8c-3.7-13.8-8.6-26.5-13.3-38.8c-0.8-1.8-1.5-3.9-2.5-6.1c-0.4-1.1-1.2-2.6-2-4.4
				c-3.1-6.5-8.3-17.4-6.2-21.5c1.7-3.3,4.2-4.9,7.7-4.9c9.7,0,23.8,12.1,32.2,19.3c2.3,1.9,4,3.4,5.2,4.3c3.8,2.7,7.3,5.3,10.1,7.2
				C738,325.9,728.9,339.5,713.8,362.1z"/>
			<path class="st2" d="M719.4,274.3c-4.9-3.6-9.9-7.5-15.1-11.7c-16-12.8-34.1-27.4-50.4-27.4c-3.2,0-6.2,0.5-9.4,1.7
				c-28.7,10.7-24.6,40.6-19.6,57.5c3,10.3,7,20.6,10.9,30.3c4.5,11.5,9,23.3,12.3,35.5c1.9,7.3,2.9,15,3.9,22.5
				c2.9,22.8,5.6,44.3,36.6,44.3c2.5,0,5.1-0.1,7.9-0.4c3.6-0.3,6.5-0.9,8.9-1.6c8.3-2.6,10.7-7.5,14.4-15c1.1-2.3,2.4-4.8,4-7.5
				c2.5-4.2,5.1-8.2,7.9-12.1v-1.1c-3,4.1-5.8,8.4-8.4,12.9c-1.6,2.8-2.9,5.3-4,7.5c-3.7,7.3-6,12.1-14,14.6
				c-2.4,0.8-5.3,1.3-8.7,1.6c-2.7,0.2-5.4,0.4-7.7,0.4c-30.3,0-32.9-20.3-35.9-43.8c-1-7.4-1.9-15.2-3.9-22.5
				c-3.2-12.2-7.9-24.1-12.4-35.6c-3.9-9.9-7.7-20-10.9-30.3c-4.9-16.7-9-46.2,19.3-56.7c3-1.1,5.9-1.6,9-1.6
				c16,0,34.1,14.4,49.9,27.2c5.3,4.2,10.2,8.2,15.2,11.7c3.8,2.7,7,5.1,9.5,6.8c1,0.6,2,1.4,3,2v-0.9c-0.9-0.6-1.8-1.2-2.7-1.8
				C726.4,279.3,723.2,277,719.4,274.3z"/>
			<path class="st2" d="M701.7,767.1c-9.9,15.1-21.5,29.6-30.6,40.6c-0.5,0.6-1.1,1.2-1.6,1.8c-4,4.6-9,10.4-5.5,16.2
				c3.4,5.6,13.2,6.8,20.4,7.6c1.3,0.1,2.5,0.3,3.6,0.4c15.4,2.3,30,6.6,43.7,12.6v-0.8c-13.6-6-28.2-10.2-43.6-12.6
				c-1.1-0.1-2.3-0.3-3.6-0.4c-7-0.9-16.7-1.9-19.9-7.3c-3.3-5.4,1.5-11,5.5-15.5c0.5-0.6,1.1-1.3,1.6-1.9c9-11,20.8-25.5,30.7-40.6
				c8.8-13.4,15-27.3,21.5-42.1c2.3-4.9,4.8-9.5,7.7-13.3v-1.1c-3.1,4.1-6,8.8-8.4,14.2C716.6,739.8,710.4,753.7,701.7,767.1z"/>
			<path class="st2" d="M461.7-123c3.6,11.6,28.5,18.1,44.5,18.1c22.8,0,46.7-4.4,72-9.1c25.5-4.7,52-9.6,77.7-9.6
				c28.2,0,51.9,5.9,72.3,18.1c1.1,0.6,2.3,1.3,3.3,2v-1.3c-1-0.5-1.9-1.2-2.8-1.7c-20.7-12.3-44.5-18.3-73-18.3
				c-25.8,0-52.3,4.8-77.9,9.6c-25.3,4.6-49.1,9-71.8,9c-15.9,0-40.2-6.6-43.5-17.3c-1.1-3.6,0.2-7.4,3.9-11.3h-1.5
				C461.7-130.6,460.5-126.8,461.7-123z"/>
			<path class="st2" d="M650.9-46.5c-2.9,0-5.8,0-8.6,0c-2.7,0-5.4,0-8,0c-15.3,0-27.4,0.8-40.9,4.8c-7,2-13.6,5.4-19.9,8.6
				c-10.7,5.3-20.7,10.3-32.6,10.3c-1.9,0-4-0.1-6-0.4c-8.8-1.3-15.5-6.3-21.9-11.4c-7.2-5.6-14-10.9-23.6-10.9
				c-0.9,0-1.7,0-2.7,0.1c-5.9,0.6-15.3,5.8-24.4,10.9c-5.9,3.2-11.4,6.3-15.4,7.7c-5.7,2-10,3.1-13.1,3.8
				c-9.5,2.3-10.7,3-15.2,20.1c-1.3,4.7-2.2,9.1-3.1,13.4c-3.3,15.8-5.9,28.3-23,40.2c-11.6,8.1-26.3,11.9-45,11.9
				c-18.5,0-37.8-3.8-54.9-7.2c-8.9-1.7-17.3-3.4-23.6-4.1c-3.7-0.4-9.3-0.6-15-0.6c-16.5,0-35.7,5.9-37.1,14.4
				c-0.6,4,2.6,10.1,21.4,16l2.2,0.6c72,22.7,122.1,52.3,173.2,102.2c14.1,13.8,24.9,20.2,33.9,20.2c2.2,0,4.2-0.3,6.1-1.1
				c9.6-3.6,16.6-15.4,24.6-29.2c4.2-7.1,8.9-15.2,14.5-22.9c27.1-37.6,66-65,109.4-77.3c12.8-3.7,25.4-5.5,37.2-5.5
				c38.7,0,66.1,18.6,92,37.9V105c-25.8-19.2-53.2-37.6-92-37.6c-11.9,0-24.6,1.8-37.6,5.5c-43.8,12.4-82.9,39.9-110.1,77.7
				c-5.6,7.7-10.3,15.9-14.5,23c-8,13.6-14.8,25.3-24.1,28.7c-1.8,0.6-3.8,1-5.8,1c-8.7,0-19.2-6.3-33-19.9
				C363.3,133.4,313,103.7,240.8,81l-2.2-0.6c-14.1-4.4-21.5-9.7-20.7-14.7c1.1-7.1,18.3-13.4,36-13.4c5.7,0,11.3,0.2,14.8,0.6
				c6.2,0.6,14.6,2.3,23.5,4.1c17.1,3.3,36.5,7.2,55.1,7.2c18.9,0,33.8-4,45.6-12.2c17.5-12.2,20.1-24.9,23.6-41
				c0.9-4.3,1.8-8.6,3-13.3c4.5-17,5.5-17.2,14.4-19.3c3.1-0.8,7.4-1.7,13.2-3.9c4-1.5,9.6-4.5,15.5-7.9c8.6-4.7,18.4-10.1,24-10.8
				c0.9-0.1,1.7-0.1,2.5-0.1c9.1,0,15.8,5.2,22.9,10.7c6.6,5.1,13.2,10.3,22.4,11.6c2,0.3,4.1,0.4,6.1,0.4
				c12.3,0,22.9-5.3,33.1-10.4c6.3-3.1,12.8-6.5,19.8-8.5c13.3-4,25.4-4.7,40.6-4.7c2.6,0,5.3,0,8,0c2.8,0,5.7,0,8.6,0
				c13.7,0,25.9,1.6,37.4,4.8c14.5,4.1,28.8,9.8,43.1,16.5v-1.2c-14.2-6.6-28.4-12.3-42.8-16.4C677-45,664.7-46.5,650.9-46.5z"/>
			<path class="st2" d="M707.3,785.1c-7.2,8.6-15.5,18.3-15.1,27.7c0.3,7.2,7.3,8.4,13.6,9.5c1.5,0.2,2.9,0.5,4.2,0.9
				c6.3,1.5,14,4.1,21.5,7.2v-0.8c-7.5-3-15.1-5.6-21.4-7.1c-1.4-0.3-2.8-0.5-4.3-0.9c-6.2-1.1-12.8-2.2-13-8.8
				c-0.4-9,7.7-18.7,15-27.1c3-3.4,5.7-6.8,7.7-9.8c6.3-9.8,11.4-19.6,16.1-29.6v-1.6c-4.8,10.4-10,20.7-16.7,30.8
				C713,778.4,710.2,781.7,707.3,785.1z"/>
			<path class="st2" d="M720,293.7c-2.6-1.8-6.1-4.3-9.8-6.9c-5.3-3.8-10.3-7.9-15.8-12.3c-1.2-1-2.6-2-4-3.2
				c-9-7.5-21.4-17.9-32.8-17.9c-3.1,0-6,0.8-8.7,2.4c-19.7,11.9-7.9,40.6-0.8,57.7c0.9,2,1.7,4.1,2.4,5.8
				c4.6,11.8,9.4,24.2,12.8,37.1c0.6,2.5,1.3,5.3,1.9,8.3c3.2,13.8,7.5,32.7,18.3,39.6c1.8,1.1,3.7,1.8,5.6,2
				c0.5,0.1,1.2,0.1,1.7,0.1c13.2,0,26.4-19.7,35.9-34.1c1.7-2.6,3.3-4.9,4.7-7v-1.2c-1.6,2.3-3.3,4.8-5.4,7.9
				c-9.5,14.3-22.6,33.8-35.4,33.8c-0.5,0-1.1,0-1.6-0.1c-1.8-0.2-3.6-1-5.3-2c-10.5-6.7-14.8-25.5-18-39.3c-0.6-3-1.3-5.9-1.9-8.4
				c-3.4-13-8.2-25.3-12.8-37.2c-0.6-1.7-1.5-3.7-2.4-5.8c-7-16.9-18.7-45.2,0.5-56.8c2.5-1.5,5.3-2.3,8.3-2.3
				c11.2,0,23.5,10.2,32.4,17.8c1.4,1.2,2.8,2.3,4,3.3c5.4,4.3,10.5,8.4,15.8,12.3c3.7,2.7,7.2,5.2,9.8,7c3.6,2.4,7,4.7,10.9,7.2
				c0.4,0.2,0.8,0.5,1.2,0.8v-0.8c-0.3-0.2-0.5-0.3-0.9-0.5C726.9,298.5,723.4,296.1,720,293.7z"/>
			<path class="st2" d="M603.3,450.3c1.3,1.6,3.7,3.9,9.7,4.3c22.4,1.8,56.3,4.5,84.9,30.1l0.3,0.3c9.8,8.8,17.8,19.9,23.6,33
				c1.6,3.7,4.3,5.7,7.2,5.7c0.9,0,1.6-0.2,2.5-0.5v-0.8c-0.9,0.4-1.6,0.6-2.5,0.6c-2.7,0-5.2-1.9-6.7-5.3
				c-5.9-13.2-13.9-24.4-23.8-33.2l-0.3-0.3c-28.8-25.8-62.8-28.5-85.3-30.3c-5.7-0.4-8-2.6-9.1-4.1c-2.9-3.7-3.2-9.4-2.9-11.1
				c3.1-13.4,7-30.3,5.5-48.7c-2.5-31.1-15.1-57.9-27.3-83.7c-9.8-20.8-21-44.3-17.1-55c6.9-19,35-46.5,46.8-57.3
				c7.5-6.9,16.4-10.4,26.5-10.4c5.7,0,10.8,1.2,13.9,2.2c20.7,6.6,49.8,21.5,82.4,42.1V227c-32.5-20.4-61.7-35.4-82.2-42
				c-3.2-1-8.2-2.3-14.1-2.3c-10.2,0-19.3,3.6-26.9,10.7c-11.8,10.9-40,38.4-46.9,57.6c-4,11,7.2,34.6,17.1,55.5
				c12.3,25.8,24.9,52.5,27.3,83.5c1.4,18.3-2.4,35.1-5.5,48.5C600,440.5,600.3,446.4,603.3,450.3z"/>
			<path class="st2" d="M729.5,781.5c-3.7,5.8-7.7,12.4-6.8,19.6c1,7.1,4.2,10.1,8.7,12.3v-0.8c-4.2-2.2-7.1-5.1-8.1-11.6
				c-1-7,3.1-13.4,6.7-19.2l0.6-1.1c0.2-0.4,0.5-0.9,0.8-1.3V778c-0.4,0.8-0.9,1.6-1.3,2.4L729.5,781.5z"/>
			<path class="st2" d="M437.2-100.4c19.4,11.9,42,17.8,69,17.8c24.9,0,51-4.8,76.2-9.5c24.5-4.5,49.9-9.3,73.5-9.3
				c23.9,0,43.7,4.8,60.6,15c2.9,1.7,6,3.6,9.3,5.5c1.9,1.2,3.9,2.3,5.8,3.6v-1.8c-1.7-1-3.4-2-5.1-3c-3.2-1.9-6.3-3.8-9.3-5.5
				c-17.1-10.2-37.2-15.2-61.4-15.2c-23.7,0-49.2,4.7-73.8,9.3c-25.2,4.6-51.1,9.5-75.9,9.5c-26.8,0-49.1-5.7-68.1-17.5
				c-12.8-8-19-16.2-18.4-24.7c0.2-2.7,1.1-5.5,2.7-8.2h-1.7c-1.4,2.7-2.3,5.4-2.5,8.1C417.4-117.4,423.8-108.7,437.2-100.4z"/>
			<path class="st2" d="M645.6,430.3c5.1,2.8,12.2,3.9,18.9,5.1c5.1,0.9,10.2,1.7,14.4,3.2c2.7,1,5.6,2.4,8.7,3.9
				c6.5,3.1,13.8,6.7,20.3,6.7c1.3,0,2.5-0.1,3.7-0.4c0.3-0.1,0.6-0.1,0.9-0.2c9.5-2.8,14.6-14.5,18.9-25.3v-1.8
				c0,0.1,0,0.1-0.1,0.2c-4.4,11-9.5,23.5-19,26.3c-0.3,0.1-0.5,0.1-0.9,0.2c-1.1,0.2-2.3,0.4-3.6,0.4c-6.5,0-13.7-3.6-20.1-6.6
				c-3.1-1.5-6.1-2.9-8.8-3.9c-4.3-1.5-9.5-2.4-14.5-3.2c-6.8-1.1-13.7-2.3-18.7-4.9c-11.1-6-9.9-16.9-8.7-28.5
				c0.4-4.5,1-9.3,0.6-13.6c-2.9-36.7-16.8-66.1-30.1-94.4c-6.1-12.9-6.6-27-1.3-39.7c5.7-13.8,17.6-25,32.8-30.6
				c4.7-1.7,9.7-2.7,14.6-2.7c21.6,0,42,16.4,59.9,30.8c5.1,4.1,9.9,8,14.4,11.2c1.2,0.9,2.3,1.6,3.3,2.4v-0.9
				c-0.9-0.6-1.8-1.3-2.9-2c-4.6-3.3-9.4-7.1-14.4-11.2c-18-14.4-38.4-30.9-60.4-30.9c-5.1,0-10.1,0.9-14.8,2.7
				c-15.4,5.7-27.4,17-33.2,30.9c-5.4,12.9-4.9,27.2,1.3,40.2c13.3,28.3,27.2,57.6,30.1,94.1c0.3,4.2-0.1,8.9-0.6,13.3
				C635.3,412.4,634.1,424,645.6,430.3z"/>
			<path class="st2" d="M650.9-24.2c-18.8,0-39,3.3-60.3,6.9c-23.9,4-48.7,8.2-75.1,8.2c-1.9,0-3.8,0-5.6-0.1
				c-9.1-0.2-16.9-1.7-23.8-3c-5.9-1.2-11.1-2.2-15.9-2.2c-11.6,0-20.2,6-29.6,20.9c-4.5,7.1-7.9,15.7-11,23.9
				C424.2,45,418.4,60,405.4,69c-4.4,3.1-12.9,5.5-21.8,8c-15.7,4.4-33.5,9.4-35.8,19.8c-3,13,24.2,30.9,39,40.5
				c2.7,1.8,5.1,3.3,6.7,4.4c17.2,12.4,31.4,20.7,44.9,20.7c1.8,0,3.7-0.1,5.5-0.4c10.8-1.9,20.6-9.4,30.8-23.6
				c30-41.6,73.3-72.1,121.7-85.8c14.8-4.2,29.5-6.3,43.5-6.3c38.7,0,67.4,15.4,92,32.5v-0.9c-24.6-17.1-53.3-32.4-92-32.4
				c-14.1,0-28.7,2.2-43.7,6.3c-48.5,13.7-91.9,44.2-122.1,86.1c-10.1,14-19.8,21.4-30.3,23.3c-1.7,0.3-3.6,0.4-5.4,0.4
				c-13.3,0-27.4-8.2-44.4-20.6c-1.5-1.1-3.9-2.7-6.7-4.4c-14.5-9.5-41.5-27.2-38.6-39.8c2.4-10,19.9-15,35.4-19.3
				c9-2.6,17.5-4.9,22.1-8.1c13-9,18.9-24.2,24.5-39c3.1-8.2,6.5-16.7,11-23.8c9.3-14.5,17.6-20.6,29.1-20.6c4.8,0,9.9,1,15.8,2
				c6.9,1.3,14.6,2.8,23.9,3c1.8,0,3.7,0.1,5.6,0.1c26.5,0,51.2-4.2,75.2-8.2c21.2-3.6,41.2-6.9,60-6.9c11.6,0,21.8,1.3,31.4,4
				c16.2,4.6,32.6,11.5,49.3,19.8v-0.8c-16.6-8.2-32.8-15.1-49.1-19.7C672.9-22.9,662.6-24.2,650.9-24.2z"/>
			<path class="st2" d="M631.1,442.1c4.6,1.2,9,2.2,13.4,3.1c23.5,5.4,43.7,10,63.9,28l0.4,0.3c4.6,4.2,8.3,6.1,11.2,6.1
				c0.4,0,0.9,0,1.3-0.1c4.4-1,6.6-7,9-14.8c0.3-1.2,0.8-2.4,1.2-3.7v-2.2c-0.6,1.8-1.3,3.8-1.8,5.6c-2.4,7.5-4.4,13.4-8.5,14.4
				c-2.9,0.6-6.8-1.3-11.9-5.8l-0.4-0.3c-20.3-18.2-40.7-22.8-64.2-28.2c-4.3-1-8.8-2-13.3-3.1c-16.5-4.1-13.7-19.3-11-34
				c1.2-6.5,2.4-13.1,1.9-18.6c-2.7-33.9-15.9-62-28.7-89.1c-1.5-3.2-3.2-6.5-4.7-9.5c-8.3-15.9-15.4-29.6-5.2-46.5
				c7.6-12.7,19.2-23.1,30.2-33.1c2-1.8,4-3.7,5.9-5.4c4.3-4,10.1-5.9,17.3-5.9c27.7,0,70.2,28.9,94.6,46.4v-0.9
				c-24.5-17.5-66.9-46.2-94.6-46.2c-7.4,0-13.3,2-17.8,6.1c-1.9,1.8-4,3.7-5.9,5.4c-11.1,10.1-22.6,20.6-30.3,33.4
				c-10.3,17.2-2.8,31.7,5.2,47.1c1.6,3,3.2,6.2,4.7,9.5c12.8,27,26,55.1,28.7,88.9c0.4,5.5-0.8,12.1-1.9,18.5
				C616.8,422.4,614,437.9,631.1,442.1z"/>
			<path class="st2" d="M158.9,759.9c-5.7,8.4-12.7,18.9-10.3,26.1c1,2.9,3.4,5.2,7.4,6.6c0.8,0.2,1.6,0.4,2.5,0.4
				c8.7,0,22.4-13.1,34.5-24.7c7.7-7.4,15-14.4,19.4-16.4c20.9-9.4,49.7-13.8,75.2-17.6c10-1.5,19.5-3,28.3-4.7
				c20-3.9,39.3-5.8,57.2-5.8c59.1,0,108.7,20.9,147.4,62.1c4.3,4.6,10.7,7,18.8,7c25.3,0,68.6-24.2,99.3-69.1
				c18.3-26.9,44.9-81.8,17.2-147.7c-11.1-26.5-27.5-38.7-51.8-38.7c-18.4,0-39.5,6.7-63.8,14.4c-30,9.5-63.9,20.2-100.5,20.2
				c-28.4,0-54.6-6.5-79.9-19.7c-78-40.9-80.4-115.6-73.6-176.1c2.6-23.6-1.6-42.2-12.3-53.8c-7.5-8.3-17.8-12.6-29.7-12.6
				c-22.5,0-50.7,17.2-60.8,50c-9.6,30.9,13.1,59.1,39.3,91.6c29.5,36.7,63.1,78.3,56.5,133.9c-3.2,27.5-13.4,53.9-27.3,70.7
				c-10.5,12.7-19.9,13.8-29.7,15c-7.5,0.9-15.3,1.8-24.4,7.5c-7,4.3-9.1,11.7-11.5,19.6c-1.6,5.4-3.2,11-6.6,15.6
				c-1.8,2.5-5.1,3-8.4,3.7c-4.5,0.8-9.6,1.6-12.2,7.3c-1.8,4,0.6,8.6,3,13.1c1.9,3.8,4.1,7.6,3.4,10.9
				C165,750.9,162.2,755,158.9,759.9z M163.2,736.8c-2.4-4.4-4.5-8.6-2.9-11.9c2.4-5.1,6.9-5.8,11.3-6.6c3.4-0.6,7.1-1.2,9.3-4.2
				c3.4-4.7,5.2-10.4,6.8-15.9c2.3-7.6,4.4-14.7,11-18.8c8.9-5.6,16.6-6.5,23.9-7.3c10.1-1.2,19.7-2.4,30.6-15.5
				c14.1-16.9,24.4-43.6,27.7-71.3c6.6-56.1-27.1-97.9-56.8-134.8c-25.9-32.3-48.4-60.1-39.1-90.5c10-32.3,37.4-49.2,59.5-49.2
				c11.5,0,21.4,4.2,28.7,12.2c10.4,11.4,14.5,29.7,11.9,52.8c-6.8,60.9-4.5,136.1,74.2,177.3c25.5,13.3,51.9,19.9,80.5,19.9
				c36.8,0,70.8-10.8,100.9-20.3c24.2-7.6,45.2-14.3,63.5-14.3c24,0,39.6,11.7,50.6,38c27.4,65.4,1.1,119.9-17.1,146.5
				c-29.3,42.9-72.8,68.5-98.2,68.5c-7.7,0-13.8-2.3-17.9-6.6c-39.1-41.5-89-62.5-148.4-62.5c-18.2,0-37.4,1.9-57.6,5.8
				c-8.7,1.7-18.2,3.1-28.2,4.7c-25.5,3.9-54.4,8.4-75.5,17.8c-4.6,2-11.6,8.8-19.7,16.6c-11.9,11.4-25.5,24.4-33.6,24.4
				c-0.8,0-1.4-0.1-2-0.3c-3.6-1.3-5.8-3.1-6.7-5.7c-2.3-6.7,4.6-16.8,10.1-25.1c3.3-4.9,6.1-9.1,6.7-11.9
				C167.4,744.9,165.3,740.8,163.2,736.8z"/>
			<path class="st2" d="M19.7,763.5c10.1-9,26.1-16.9,44.7-26c12.9-6.3,30.3-22.1,29.3-34.9c-0.5-7-6.2-12.3-17-15.6
				c-4.2-1.3-8.8-1.9-14.1-1.9c-13.8,0-29.2,4.5-42.8,8.4c-6.2,1.8-12.2,3.6-17.5,4.7c-45.2,10.1-72.4,16.1-96.8,16.1
				c-21.6,0-40.6-4.7-65.4-16.5c-23.9-11.2-41.2-21.7-55.2-30.2c-20.4-12.5-30-18-42.2-18c-5.7,0-12.4,1.3-20.6,3.8v1.2
				c8.1-2.6,14.8-3.9,20.6-3.9c11.8,0,21.3,5.5,41.6,17.9c14,8.5,31.3,19,55.3,30.3c25.1,11.7,44.1,16.6,66,16.6
				c24.5,0,51.9-6.1,97.1-16.1c5.4-1.2,11.3-2.9,17.5-4.7c13.6-4,28.9-8.4,42.5-8.4c5.2,0,9.7,0.6,13.8,1.9
				c10.2,3.2,15.7,8.1,16.2,14.6c1,12.4-16,27.5-28.7,33.8c-18.6,9.1-34.6,17.1-45,26.1C-12,790.2-7.1,826,2.3,858.2h1.2
				C-5.8,826.1-10.7,790.5,19.7,763.5z"/>
			<path class="st2" d="M701.1,609.2c2.9,1.8,7.5,2.8,13.1,2.8c5.1,0,11-0.9,17.2-2.7v-1.6c-6.3,1.9-12.3,2.8-17.2,2.8
				c-5.3,0-9.7-1-12.4-2.6c-13.1-8.3-19-22.9-25.2-38.4c-5.3-13.3-10.9-27.1-21.5-36.9v-0.4h-0.4c-12.3-10.7-28.8-15.8-50.6-15.8
				c-21.2,0-43.6,5.1-61.4,9c-12.3,2.8-22.8,5.2-29.7,5.2c-4,0-6.5-0.9-7.4-2.5c-1.3-2.3-0.3-6.3,3-12.4
				c15.5-27.8,46.8-94.1,44.7-121.6c-1.7-21.6-12.3-44-22.5-65.6c-14.8-31.3-30.1-63.7-19-94.7c12.7-35.3,68.9-98.5,108.8-103.8
				c2.4-0.3,4.8-0.4,7.4-0.4c25.9,0,63.9,15.2,103.5,37.2v-1.6C691.9,143.2,653.9,128,628,128c-2.7,0-5.3,0.2-7.6,0.5
				c-40.5,5.4-97.2,69.2-110.1,104.8c-11.4,31.5,4.1,64.2,19,95.9c10.2,21.5,20.7,43.8,22.4,65.2c1.9,24.5-25.4,86.5-44.4,120.8
				c-3.7,6.7-4.6,11.1-3,13.9c1.3,2.2,4.2,3.2,8.8,3.2c7,0,17.6-2.4,30-5.2c17.9-4,40.1-9,61.1-9c21.5,0,37.8,5.2,49.8,15.6l0,0
				c10.5,9.5,16,23.2,21.3,36.6C681.7,585.9,687.6,600.7,701.1,609.2z"/>
			<path class="st2" d="M688,709.9c-5.9,13.3-11.5,25.8-18.6,36.7c-41.3,63.3-87.5,73.9-136.2,85.2c-3.8,0.9-7.6,1.7-11.4,2.5
				c-16.2,3.4-33,6.9-46.8,15.7c-4.3,2.7-7.5,5.5-9.8,8.1h1.5c2.2-2.4,5.2-4.7,9-7.2c13.6-8.6,30.2-12.2,46.4-15.5
				c3.8-0.8,7.6-1.6,11.4-2.5c49.1-11.3,95.3-22.1,137-85.6c7.1-11,12.8-23.6,18.7-36.9c9.5-21.2,20.1-45.2,35-53.2
				c2.6-1,5.2-1.8,7.5-2.6v-1.2c-2.5,0.8-5.2,1.7-8,2.8C708.3,664.4,697.6,688.6,688,709.9z"/>
			<path class="st2" d="M454.8,834.1c26.5-11.6,50.4-17.1,73.5-22.5c46.5-10.8,86.6-20,123.3-76.2c6.2-9.5,11.5-21.3,17-33.8
				c11.6-26.1,23.8-53.2,46.2-64.3c6-2.3,11.5-4.1,16.7-5.4v-1.6c-5.4,1.4-11.1,3.2-17.4,5.6c-22.9,11.4-35.1,38.7-46.8,65.1
				c-5.6,12.5-10.8,24.2-16.9,33.6c-36.4,55.6-76.3,64.9-122.3,75.5c-23.2,5.4-47.2,10.9-73.8,22.6c-17.3,7.5-28.8,16.4-33.7,25.4
				h1.7C427.1,849.7,438.3,841.4,454.8,834.1z"/>
			<path class="st2" d="M460,781.4c-4.2-12.9-22.4-22.6-54.1-28.7c-20.9-4-42.3-6-63.5-6c-31.2,0-62.8,4.4-93.9,13
				c-4.2,1.2-8.4,2.5-12.6,3.8c-53.7,17.5-84.7,46.7-98.6,94.7h1.6c13.9-47.1,44.4-75.9,97.4-93.2c4.1-1.3,8.3-2.6,12.5-3.8
				c31-8.6,62.4-13,93.5-13c21.1,0,42.4,2,63.2,6c31.1,6,49,15.3,52.9,27.7c3,9.5-2,21-15,34.3c-13.4,13.8-27,27.7-39.2,42h2
				c11.9-13.9,25.2-27.4,38.3-40.9C458.1,803.4,463.2,791.4,460,781.4z"/>
			<path class="st2" d="M335.6,658.6c1,0.5,1.9,0.8,2.9,0.8c4,0,7.9-3.9,11.4-7.2c2-1.9,3.9-3.8,5.5-4.5c2-1,3.9-1.4,5.8-1.4
				c3.6,0,6.6,1.7,10.1,3.7c1.3,0.6,2.6,1.4,4,2c3.3,1.6,6.7,2.4,10,2.4c3.4,0,6.6-0.8,9.9-1.6c3.4-0.9,7.1-1.7,11.3-1.8h0.5
				c8.5,0,16.4,4.3,23.9,8.5c7.5,4.2,15.3,8.5,23.8,8.5c4.1,0,8-1,11.9-2.9c3.1-1.6,5.6-3.6,7.7-5.3c3.4-2.8,6.5-5.3,11.5-5.3
				c1.5,0,3.1,0.2,4.8,0.6c14.4,3.3,20.8,16.4,26.9,28.9c2.9,5.9,5.8,12.1,9.6,16.9c7.5,9.8,17.2,15.2,27.3,15.2h0.5
				c10.1-0.2,19.8-5.7,27.3-15.4c10.2-13.2,28.7-56.5,21.1-78c-2.3-6.3-6.7-10.3-13-11.9c-2.3-0.5-4.3-0.9-6.3-0.9
				c-6.6,0-11.4,2.9-17.1,6.2c-1.3,0.8-2.6,1.5-4,2.3c-11.5,6.5-22.9,7.7-35,9.1c-4.7,0.5-9.7,1.1-14.6,2c-5.5,1-10.5,2.9-15.3,4.7
				c-6.3,2.4-12.3,4.7-18.8,4.7c-4.4,0-8.8-1.1-13.2-3.2c-9.3-4.5-19.4-8.6-30.5-8.6c-3.7,0-7.3,0.4-11.1,1.3
				c-1.7,0.4-3.3,0.9-5.1,1.2c-6.5,1.6-12.5,3.1-18.7,3.1c-5.1,0-9.7-1.1-14.4-3.1l-1.9-0.9c-8.5-3.9-17.2-7.9-26.3-7.9
				c-4.9,0-9.5,1.2-14,3.7c-5.6,3-13.1,15.9-13.1,25C330.9,653.9,332.5,657,335.6,658.6z M344.4,625.7c4.3-2.4,8.7-3.4,13.4-3.4
				c8.7,0,17.3,4,25.7,7.7l1.9,0.9c4.8,2.2,9.7,3.2,14.8,3.2c6.3,0,12.5-1.5,18.9-3.1c1.6-0.4,3.3-0.9,5.1-1.2
				c3.7-0.9,7.2-1.3,10.8-1.3c10.9,0,20.9,4.1,29.9,8.5c4.6,2.3,9.1,3.3,13.8,3.3c6.8,0,12.8-2.3,19.3-4.7c4.7-1.8,9.7-3.7,15.1-4.6
				c4.9-0.9,9.8-1.5,14.5-2c12.2-1.4,23.7-2.8,35.4-9.3c1.4-0.8,2.7-1.5,4-2.4c5.5-3.2,10.3-6,16.6-6c1.9,0,3.9,0.2,6,0.8
				c5.9,1.5,10,5.3,12.2,11.2c7.5,21.2-10.8,63.8-20.9,76.9c-7.3,9.5-16.7,14.8-26.5,15h-0.5c-9.7,0-19.2-5.3-26.4-14.7
				c-3.7-4.7-6.5-10.5-9.5-16.7c-6.2-12.8-12.7-26.1-27.7-29.6c-1.8-0.4-3.6-0.6-5.1-0.6c-5.5,0-8.6,2.6-12.3,5.5
				c-2.2,1.7-4.4,3.6-7.5,5.2c-3.8,1.9-7.5,2.8-11.4,2.8c-8.2,0-15.5-4.1-23.1-8.4c-7.6-4.3-15.6-8.7-24.4-8.7h-0.5
				c-4.3,0.1-8,1-11.5,1.8c-3.2,0.8-6.3,1.5-9.7,1.5c-3.2,0-6.2-0.8-9.5-2.3c-1.4-0.6-2.7-1.4-3.9-2c-3.4-1.9-6.8-3.8-10.7-3.8
				c-2,0-4.1,0.5-6.2,1.5c-1.7,0.9-3.7,2.7-5.7,4.7c-3.3,3.2-7,6.9-10.5,6.9c-0.9,0-1.6-0.2-2.4-0.6c-2.8-1.5-4.2-4.2-4.2-8.1
				C332,640.5,339.7,628.3,344.4,625.7z"/>
			<path class="st2" d="M190.9,736.6c1.4,0.3,4,0.5,7.3,0.5c6.8,0,32.2-1,71.7-13.8c33-10.8,71.7-16.7,108.8-16.7
				c61,0,101.6,9,153.9,58.2c3.7,3.4,8.7,5.3,14.7,5.3c22.7,0,57-24.3,78.2-55.3c16.4-24.3,40.3-73.8,15.6-133
				c-10.7-25.5-24.1-28.9-36.9-28.9c-15.9,0-35.8,6.3-59,13.7c-31.1,9.9-66.4,21-105.4,21c-31.2,0-59.7-7.1-87.5-21.6
				c-87.5-45.9-88.7-131.4-82-191.7c2-18.7-0.9-33.5-8.3-41.6c-4.5-4.9-10.4-7.4-17.8-7.4c-16.6,0-37.6,13.3-45.4,38.8
				c-7.1,23,13.1,48.2,36.5,77.3c29.9,37.1,67.1,83.4,59.8,145.4c-2,17.8-6.9,34.6-14.3,50.1c-11.8,24.7-27.4,45.7-46.5,62.4
				c-12.6,11-25.1,18.7-34.3,24.3c-8.4,5.1-13.4,8.2-13,10.5C187.2,735.2,188.4,736.1,190.9,736.6z M200.5,724.2
				c9.3-5.6,21.8-13.3,34.4-24.3c19-16.7,34.8-37.8,46.6-62.6c7.4-15.6,12.3-32.6,14.4-50.4c7.3-62.3-30-108.7-60-145.9
				c-23.2-28.9-43.4-53.9-36.4-76.6c7.7-25.2,28.4-38.4,44.8-38.4c7.1,0,12.9,2.4,17.2,7.2c7.3,8,10.2,22.6,8.2,41.1
				c-6.8,60.5-5.5,146.2,82.3,192.4c27.8,14.5,56.5,21.6,87.8,21.6c39.2,0,74.5-11.2,105.7-21.1c23-7.3,42.8-13.6,58.6-13.6
				c12.7,0,25.8,3.4,36.4,28.6c24.6,58.9,0.8,108.1-15.7,132.3c-20.7,30.3-55.5,55.1-77.6,55.1c-5.9,0-10.8-1.7-14.3-5.1
				c-25.3-23.9-48.8-39-74.1-47.7c-21.7-7.5-45.7-10.7-80.2-10.7c-37.1,0-75.9,5.9-109,16.7c-39.4,12.8-64.7,13.8-71.4,13.8
				c-3.2,0-5.7-0.2-7.1-0.5c-2-0.5-3.2-1.2-3.3-1.9C187.5,732.2,192.9,728.9,200.5,724.2z"/>
			<path class="st2" d="M244.3,340.5c-12.1,0-25.3,11.9-29.6,22.7c-2.9,7.1-0.6,19.3,5.8,32.6c6.1,12.5,14.3,22.2,20.4,23.9
				c1,0.3,1.8,0.4,2.8,0.4s2-0.2,3-0.5c7.9-2.7,7.6-7.4,7.2-17.8c-0.2-6.3-0.5-15.1,0.8-27c1.8-16-0.8-28.3-4.2-32.1
				C249.4,341.6,247.9,340.5,244.3,340.5z M253.6,374.8c-1.3,12.1-1,20.8-0.8,27.1c0.4,10.3,0.5,14.2-6.5,16.7
				c-1.6,0.5-3.3,0.5-5.1,0.1c-5.8-1.7-13.7-11.1-19.7-23.3c-6.3-13-8.6-24.9-5.8-31.6c4.2-10.4,17-21.9,28.5-22.1
				c3.1,0,4.5,1,5.4,1.9C253,347.2,255.4,359,253.6,374.8z"/>
			<path class="st2" d="M515.8,660.2c2.5,1,3.9,1.7,5.7,2.8c0.8,0.4,1.5,0.9,2.4,1.3c9.3,4.8,17,9.8,22.4,14.3
				c3,2.6,5.6,3.8,7.6,3.8c3.1,0,4.8-2.6,6.3-4.9c5.4-9.1,7.3-16.1,9.6-28.4c0.3-1.5,0.3-3.7-1-5.2c-1.6-1.9-4.8-2.3-9.6-1
				c-14.2,3.9-23.8,5.7-35.9,8c-2.2,0.4-4.3,0.8-6.6,1.2c-2.4,0.4-4.1,2-4.3,4C512.5,656.9,512.6,658.9,515.8,660.2z M517.1,653.3
				c2.3-0.4,4.5-0.9,6.6-1.2c12.2-2.3,21.7-4.1,36-8c1.7-0.4,3.3-0.8,4.6-0.8c1.7,0,2.9,0.4,3.7,1.3c1,1.1,0.9,2.8,0.6,4.1
				c-2.2,12.2-4.1,19-9.4,28c-1.5,2.6-3,4.3-5.2,4.3c-1.8,0-4-1.2-6.9-3.4c-5.5-4.5-13.3-9.6-22.6-14.5c-0.9-0.4-1.7-0.9-2.4-1.3
				c-1.8-1-3.3-1.8-5.8-2.8c-1.7-0.6-2.6-1.7-2.5-2.9C514,654.8,515.3,653.7,517.1,653.3z"/>
			<path class="st2" d="M309.8,683.5c2,0,4.6-0.2,7.7-0.5c1.4-0.1,33.9-3.8,68.9-3.8c13.6,0,25.7,0.5,36,1.6
				c51.5,5.5,96.2,29.6,117.6,51.2c4,4,8.6,6,14,6c11.9,0,26.7-10.2,40.3-28.1c24-31.2,31.3-91,19.4-114.6
				c-3.1-6.2-7.5-9.6-12.8-9.6c-0.4,0-0.9,0-1.3,0.1c-9.5,1-22.5,4.7-39.1,9.5c-31,8.9-73.5,21.2-119.5,21.9
				c-39.4,0.6-84.4-14.7-99.6-22.1c-4.9-2.4-8.3-3.4-10.4-3.4c-4.5,0-4.7,4.3-5.1,11.3c-0.2,5.6-0.6,13.3-3.4,22.1
				c-5.1,15.9-10.8,28.1-15,36.9c-4.6,9.8-7.4,15.7-5.5,18.8C303,682.7,305.5,683.5,309.8,683.5z M308,662.5c4.2-8.8,9.9-21,15.1-37
				c2.8-8.9,3.1-16.6,3.4-22.3c0.3-6.9,0.5-10.7,4.4-10.7c2.2,0,5.4,1.1,10.2,3.4c15.1,7.2,58.7,22.1,97.7,22.1c0.8,0,1.5,0,2.3,0
				c46.2-0.8,88.7-13,119.8-21.9c16.6-4.7,29.6-8.5,39-9.5c5.6-0.5,10.1,2.5,13.4,9.1c11.8,23.3,4.6,82.9-19.4,113.8
				c-13.6,17.6-28.1,27.8-39.8,27.8c-5.2,0-9.7-1.9-13.4-5.8c-21.4-21.6-66.3-45.9-117.9-51.4c-10.3-1.1-22.5-1.6-36.2-1.6
				c-35,0-67.6,3.6-69,3.8c-3.1,0.3-5.7,0.5-7.6,0.5c-4.1,0-6.3-0.6-7.3-2.2C300.8,677.9,303.4,672.1,308,662.5z"/>
			<path class="st2" d="M259.7,708.7c2,0,4.7-0.5,7.5-1.5c31.4-10.8,67.9-15.9,111.4-15.9c54.2,0,107.9,4.8,169,63.9
				c1.7,1.7,4.1,2.6,6.9,2.6l0,0c17.1,0,48.6-32.2,58-51.5c0.9-1.7,1.8-3.7,2.8-5.6c11.9-24,31.8-64.2,11.5-112.8
				c-8.2-19.5-15.7-19.5-22.4-19.5c-13.4,0-32.3,5.9-54.1,12.9c-32.2,10.2-68.6,21.7-110.3,21.7c-35.5,0-64.3-6.5-93.3-20.9
				c-4.5-2.3-8.8-4.6-12.6-6.8c-7.6-4.3-13.7-7.7-17.5-7.7c-3,0-4.5,2-4.6,6.3c0,0.6,0.1,1.7,0.2,3.3c4.2,41.9-12.4,80.9-49,116.2
				c-6.5,6.1-9.1,10.5-8.1,13.1C255.6,708,257.2,708.7,259.7,708.7z M263.5,694c23.6-22.7,39.1-47.2,45.9-73.1
				c5.6-20.8,4-36.8,3.2-43.7c-0.1-1.5-0.2-2.6-0.2-3.2c0.1-5.1,2.3-5.7,3.9-5.7c3.7,0,9.9,3.6,17.2,7.6c3.8,2.2,8.2,4.6,12.7,6.9
				c29.1,14.4,57.9,20.9,93.6,20.9c41.6,0,78.2-11.6,110.5-21.8c21.7-6.9,40.6-12.8,53.9-12.8c6.5,0,13.9,0,21.8,19
				c20.2,48.3,0.4,88.3-11.4,112.2c-1,1.9-1.9,3.9-2.8,5.6c-9.3,19.3-40.5,51.2-57.3,51.2c-2.6,0-4.7-0.8-6.3-2.4
				c-28.4-27.4-57.7-45.4-89.7-54.9c-28.5-8.5-55-9.1-79.7-9.1c-43.6,0-80.2,5.3-111.6,15.9c-2.7,1-5.3,1.4-7.3,1.4
				c-1.5,0-3.4-0.3-4-1.6C255,705.1,255.4,701.7,263.5,694z"/>
			<path class="st2" d="M139-134.6h-1.6c-3.4,11.8-5.9,25-7.3,39.2c-2.5,24.9-4.7,57.5,0.5,88.9c3.8,22.9,11.4,33.1,24.5,33.1l0,0
				c8.4,0,18.3-4,29.6-8.7c7.9-3.2,16-6.6,24.7-9c0.9-0.2,1.6-0.4,2.5-0.6c24.9-6.6,52.8-7.4,82.5-2.7c8,1.3,16,3.4,23.9,5.6
				c11.4,3.1,23.1,6.2,35.1,6.8c6.5,0.3,11.1-0.3,14.4-1.9c9.6-4.6,4.9-16.4,0-28.7c-2.9-7.3-5.9-14.8-6.3-21.6
				c-2.6-36,17.9-68.8,44.9-100.2h-2c-26.8,31.3-47,64.1-44.3,100.3c0.5,7,3.6,14.6,6.5,22.1c4.8,12.2,9,22.7,0.8,26.8
				c-3,1.5-7.5,2-13.6,1.8c-11.7-0.5-23.5-3.7-34.8-6.8c-7.9-2.2-15.9-4.3-24-5.6c-29.9-4.7-58.1-3.9-83.2,2.8
				c-0.9,0.2-1.7,0.4-2.6,0.6c-8.8,2.5-17,5.8-25,9c-11.2,4.6-20.9,8.6-29.1,8.6c-12.3,0-19.4-9.8-23-31.8
				c-5.2-31.2-3-63.7-0.5-88.4C133.1-109.6,135.6-122.7,139-134.6z"/>
			<path class="st2" d="M118.9,482.7c-1.5-1.3-2.8-1.9-4.1-1.9c-3.1,0-5.4,3.9-8.7,9.9c-3.4,6.1-8.2,14.6-16.4,23.1l-2.4,2.5
				c-9.4,9.8-13.7,14.2-12.6,16.6c0.4,1.1,1.9,1.6,4.7,1.6c2.4,0,5.8-0.3,11.6-1.2c2.4-0.3,4.8-0.5,7.2-0.5
				c19.5,0,35.7,10.8,47.6,18.6c6.9,4.6,12.4,8.2,16.4,8.2c1.6,0,3-0.6,4-1.9C178.6,542,135.2,497.2,118.9,482.7z M165.3,556.9
				c-0.8,1-1.8,1.5-3.1,1.5c-3.6,0-8.9-3.6-15.7-8.1c-11.9-8-28.3-18.7-48.1-18.7c-2.5,0-4.9,0.2-7.3,0.5c-5.7,0.8-9.1,1.1-11.4,1.1
				c-2.2,0-3.4-0.3-3.7-0.9c-0.8-1.7,4.5-7.2,12.4-15.4l2.4-2.5c8.3-8.6,13-17.1,16.5-23.3c3.1-5.6,5.2-9.3,7.6-9.3
				c1,0,2,0.5,3.3,1.7C138.3,501.5,176.3,543,165.3,556.9z"/>
			<path class="st2" d="M119.2,501.1c-7.9,0-18,12.2-18,18c0,2.4,1.5,3.8,4.1,3.8c11.6,0.2,23.8,7.4,32.7,12.7
				c5.3,3.1,9.1,5.4,11.4,5.4l0,0c0.8,0,1.3-0.2,1.7-0.6c0.5-0.5,0.8-1.4,0.6-2.6c-0.9-10.7-21.3-31.8-29.6-35.9
				C121.3,501.3,120.3,501.1,119.2,501.1z M150.2,537.8c0.1,1-0.1,1.3-0.2,1.4c0,0-0.1,0.2-0.5,0.2l0,0c-1.8,0-5.9-2.4-10.5-5.2
				c-9-5.4-21.5-12.7-33.5-12.9c-1.8,0-2.6-0.8-2.6-2.3c0-5.2,9.5-16.5,16.5-16.5c0.8,0,1.5,0.2,2.2,0.5
				C130.4,507.5,149.5,528.2,150.2,537.8z"/>
			<path class="st2" d="M91.5,301.1L91.5,301.1c1.9,0,3.4-2.7,4.9-8.7c5.6-22.5,24.2-52.3,53.2-68.2c29.3-16,48.7-20.2,59.2-22.5
				c5.2-1.1,7.9-1.7,8.4-3c0.2-0.5,0.2-1.1-0.2-1.8c-2-3.7-38.2-23.6-90.3-27.7l-2.2-0.2c-4.7-0.4-8.7-0.8-12.6-0.8
				c-13.6,0-24.5,3.8-50.1,25c-4.1,3.3-8.2,6.5-12.2,9.5c-12.4,9.4-23,17.3-22.4,26.5c0.5,7,7.6,14,22.3,21.9
				c16.2,8.8,26,26.3,32.6,37.8C86.2,296.2,88.9,301.1,91.5,301.1z M49.7,250.6c-14.2-7.7-21.4-14.7-21.8-21.4
				c-0.6-8.8,9.9-16.7,22.1-25.9c4-3,8.2-6.1,12.2-9.5c25.4-21.1,36.3-24.9,49.7-24.9c3.9,0,7.9,0.3,12.6,0.8l2.2,0.2
				c50.9,4.1,87.8,23.9,89.7,27.3c0.4,0.6,0.3,1.1,0.2,1.3c-0.5,1.1-3.3,1.6-8,2.7c-10.5,2.3-30,6.5-59.4,22.5
				c-29.1,15.9-47.8,45.9-53.5,68.6c-1.4,5.5-2.8,8.2-4.3,8.2l0,0c-2.2,0-5.2-5.2-8.8-11.8C76.1,277,66.1,259.4,49.7,250.6z"/>
			<path class="st2" d="M95.8,338.9c1.9,0,3.3-2.3,4.2-7.2c5.8-30.3,18.4-73.4,60.7-96.3c13-7.1,27.8-12.7,45-17.2
				c3.4-0.9,7.2-3.3,10.8-5.7c4.6-3.1,9.5-6.2,13.9-6.2c0.5,0,1,0,1.5,0.1c2.5,0.4,4.3,1.8,6.1,3.2c2,1.5,4,3,6.6,3
				c1,0,2-0.2,3.1-0.6c1.9-0.8,2.9-2.2,3.8-3.6c1.3-1.9,2.6-3.8,6.5-3.4c3.8,0.3,5.8,3.1,8,6.1c1.5,2.2,3.1,4.3,5.3,5.5
				c1.6,0.9,4.5,1.8,7.1,1.8c1.8,0,3.1-0.4,3.8-1.4c0.6-0.9,0.8-2.2,0.3-3.8c-1.5-5.2-12.8-10-20.3-13.2c-2.3-1-4.1-1.7-5.4-2.4
				c-11.2-5.8-22.3-10.8-31.7-14.8c-39.7-17.1-76-27.5-110.8-31.8c-3.9-0.5-7.3-0.8-10.3-0.8c-17.1,0-30.5,7.3-56.8,31.5
				c-6.5,5.9-13.1,11-19.6,15.9c-14.4,11.1-25.8,19.8-25.6,30.7c0.2,8.6,7.9,17.9,24,29.1c26,18,43.4,45.2,54.9,63.2
				C87.7,331.6,92.3,338.9,95.8,338.9z M26.2,256.7c-16-11-23.6-20-23.8-28.5c-0.2-10.7,11.1-19.3,25.3-30.1
				c6.5-4.9,13.1-10,19.7-16c26.3-24,39.5-31.3,56.4-31.3c3,0,6.5,0.2,10.3,0.8c34.8,4.3,70.9,14.7,110.6,31.8
				c9.5,4.1,20.6,8.9,31.7,14.7c1.3,0.6,3.2,1.5,5.4,2.5c7.4,3.1,18.5,8,19.9,12.8c0.4,1.4,0.3,2.5-0.2,3.1c-0.8,1-2.2,1.1-3.2,1.1
				c-2.4,0-5.2-0.9-6.8-1.7c-2-1.2-3.6-3.2-5.1-5.3c-2.2-3-4.4-6.1-8.5-6.5c-4.2-0.3-5.6,1.7-7,3.8c-1,1.4-1.8,2.7-3.6,3.3
				c-1,0.4-1.9,0.5-2.9,0.5c-2.4,0-4.2-1.4-6.1-2.9c-1.8-1.4-3.8-2.9-6.5-3.3c-0.5-0.1-1.1-0.1-1.6-0.1c-4.6,0-9.6,3.2-14.3,6.3
				c-3.7,2.5-7.2,4.7-10.5,5.7c-17.3,4.5-32.1,10.1-45.2,17.2c-42.4,23.1-55.1,66.3-61,96.8c-0.9,4.5-2,6.7-3.6,6.7
				c-3,0-7.9-7.6-14.5-18.2C69.7,302,52.4,274.7,26.2,256.7z"/>
			<path class="st2" d="M178.6,615.7c15.4-1.7,29.8-12.1,36.8-26.4c6.5-13.1,9.9-35.3-10-66.7c-8.6-13.4-17.9-27.1-26.9-40.2
				c-25.8-37.7-50.1-73.3-60.3-108.9c-11.4-40.3-2.3-73.7,28.7-104.8c26.8-27,62.3-42.4,97.4-42.4c26.4,0,49.8,9.1,66.1,25.6
				c18,18.2,26.9,44.8,25.9,76.8c-0.2,7.4-0.5,15.2-1,23.3c-1.4,28.9-2.9,61.9,1.8,89.2c5.5,31.4,18.5,50.9,39.7,59.4
				c11.4,4.5,22.2,6.9,32.1,6.9c18,0,33.2-7.7,44.2-22.3c18.6-24.9,23.1-67.4,11.1-105.8c-25.7-82.4-87.6-131.7-179-184.4
				c-69.5-40-128.1-52.4-181.2-59.8c-4-0.5-7.7-0.9-11.2-0.9c-22.2,0-32.7,11.1-46.1,25.2c-5.2,5.4-10.4,11-17,16.7
				c-7.5,6.6-14.2,10.5-20,14.1c-9.4,5.7-17.4,10.5-26.3,23.6c-17.6,25.9,5.9,41.9,31,58.6c13.2,8.9,26.9,18.1,34.1,28.9
				c45.9,68.4,27.4,141.5-5.3,187c-9.4,13-23,25.3-37.4,38.3c-17.6,15.9-35.9,32.4-46.4,50.7c-4.5,7.9-5.8,13.2-3.9,16.4
				c1.4,2.3,4.4,3.4,9.3,3.4l0,0c8.6,0,22.3-3.6,38.2-7.5c22.3-5.7,49.9-12.8,74.3-12.8c12.9,0,24.1,2,33,6
				c8.9,4,16.5,9.8,23.8,15.3c11.9,9.1,23.3,17.9,39.3,17.9C175.2,616,176.9,615.9,178.6,615.7z M110.7,582.2
				c-9.1-4.1-20-6.1-33.2-6.1c-24.5,0-52.3,7.1-74.5,12.8c-15.8,4.1-29.5,7.5-38,7.5l0,0c-4.6,0-7.4-1-8.6-3.1
				c-1.7-2.9-0.4-8.1,3.9-15.7c10.4-18.3,28.6-34.6,46.3-50.6c14.4-13,28.1-25.3,37.6-38.4c19.2-26.7,30.5-57.1,32.7-88
				c2.6-35.3-6.7-68.9-27.4-99.7c-7.4-11-21.1-20.2-34.3-29.2c-24.7-16.7-48-32.4-30.8-57.8c8.8-12.9,16.8-17.8,26.1-23.3
				c5.8-3.6,12.5-7.5,20.1-14.1c6.6-5.7,11.9-11.3,17.1-16.7c13.2-13.9,23.7-25,45.5-25c3.4,0,7.2,0.3,11.1,0.9
				c53,7.4,111.6,19.7,181,59.7c91.4,52.6,153.1,101.8,178.7,184c11.9,38.2,7.5,80.5-11,105.1c-10.9,14.4-25.9,22.1-43.7,22.1
				c-9.8,0-20.4-2.3-31.7-6.8c-21-8.4-33.9-27.7-39.3-58.9c-4.7-27.2-3.2-60-1.8-89c0.4-8.2,0.8-15.8,1-23.3
				c1-32.3-8.1-59.1-26.1-77.4c-16.5-16.7-40.1-25.8-66.6-25.8c-35.2,0-70.8,15.5-97.8,42.6c-16.5,16.6-26.7,33.6-31.1,52.2
				c-4,16.6-3.2,34,2.2,53.3c10.1,35.8,34.4,71.4,60.4,109.1c9,13.1,18.3,26.8,26.9,40.2c19.8,31.2,16.4,53.2,10,66.1
				c-6.9,14.1-21.2,24.3-36.3,26c-1.7,0.2-3.4,0.3-5.1,0.3c-15.8,0-27-8.6-39-17.6C127.2,592,119.7,586.2,110.7,582.2z"/>
			<path class="st2" d="M193.4,588.3c5.9-4.2,9.4-10.1,10.2-17.5c2.7-21.7-16.9-53.4-34.4-73.8c-21.9-25.6-43.7-52.9-54.3-79.3
				c-0.5-1.3-1.3-4.9-2.4-9.7c-3.4-15.7-9.1-42-17.4-42c-0.8,0-1.5,0.2-2.4,0.6c-3.4,2-4.5,5.9-3.1,12.1c1.1,5.1,3.7,10.8,5.9,15.9
				c2.4,5.4,4.4,10,4.4,12.7c-0.1,6.8-3.3,9.8-6.5,12.7c-2.5,2.3-4.9,4.6-5.9,8.7c-1.2,5.3,1.1,9.1,3.1,13c1.9,3.6,4,7.2,3.3,11.8
				c-1.2,8.6-28.9,39.7-53.5,67.1C20.2,543.5,2.7,563.1,3,566.8c0,0.3,0.1,0.5,0.3,0.6c1.7,1.4,4.7,2,9.4,2l0,0
				c7.2,0,17.3-1.6,29.1-3.4c14.2-2.3,30.2-4.7,44.1-4.7c10.9,0,19,1.5,24.9,4.6c3.2,1.7,6.8,3.8,10.5,5.9
				c16.7,9.6,37.6,21.4,55.2,21.4C182.9,593.4,188.6,591.7,193.4,588.3z M111.1,565.4c-5.9-3.2-14.2-4.7-25.2-4.7
				c-14,0-30,2.6-44.2,4.7c-11.6,1.8-21.7,3.4-28.9,3.4l0,0c-4.4,0-7.3-0.6-8.9-1.8c0,0-0.1-0.1-0.1-0.2
				c-0.2-3.4,18.1-23.9,37.4-45.6c24.5-27.5,52.4-58.6,53.6-67.5c0.6-4.9-1.4-8.6-3.4-12.3c-2.2-3.9-4.2-7.5-3.1-12.6
				c0.9-3.9,3.2-6,5.7-8.4c3.2-3,6.6-6.1,6.7-13.2c0-2.8-2-7.5-4.4-12.9c-2.3-5.1-4.7-10.8-5.8-15.7c-1.3-5.8-0.3-9.5,2.8-11.4
				c0.6-0.4,1.3-0.5,1.9-0.5c7.7,0,13.7,27,16.8,41.4c1.1,4.8,1.8,8.4,2.4,9.8c10.7,26.5,32.5,53.9,54.4,79.5
				c17.4,20.4,36.9,51.9,34.3,73.3c-0.9,7.2-4.2,12.9-10,17c-4.5,3.2-10.1,4.9-16.5,4.9c-17.4,0-38.2-11.8-54.9-21.4
				C117.8,569.2,114.3,567.1,111.1,565.4z"/>
			<path class="st2" d="M185.6,560.7c2-18.2-17.8-46.7-27.7-57.7c-17.1-18.9-28.9-35-36.8-45.7c-7.9-10.5-12.2-16.4-15-16.4
				c-1.9,0-2.9,2.5-3.7,8.4c-4.9,44.9-34.4,69.2-52.1,83.8c-7.7,6.3-12.8,10.5-13,14c-0.1,1,0.3,1.9,1.1,2.7
				c1.6,1.7,4.2,2.5,8.1,2.5c4.3,0,9.9-1,16.2-2.2c8.3-1.5,17.6-3.2,27.2-3.2c13,0,23.6,3.2,32.2,9.8c12.2,9.3,30.1,19.2,44.1,19.2
				l0,0c5.1,0,9.4-1.3,12.9-3.8C182.9,569.5,185.1,565.6,185.6,560.7z M166.4,575.3L166.4,575.3c-13.9,0-31.7-9.8-43.7-19
				c-8.7-6.7-19.4-9.9-32.6-9.9c-9.7,0-19,1.7-27.3,3.2c-6.3,1.2-11.8,2.2-16.1,2.2c-3.7,0-6-0.8-7.5-2.3c-0.6-0.6-1-1.4-0.9-2.3
				c0.2-3.2,5.5-7.5,12.8-13.6c17.8-14.6,47.3-39.1,52.3-84.2c0.5-5.4,1.5-7.9,2.9-7.9c2.5,0,6.9,6,14.3,16.1
				c7.9,10.7,19.8,26.8,36.9,45.7c9.8,10.9,29.5,39.2,27.5,57.1c-0.5,4.8-2.6,8.5-6.1,11.1C175.4,574,171.2,575.3,166.4,575.3z"/>
			<path class="st2" d="M377.4,379.2c-2.3,34.5,7.7,58.2,18,69c4.6,4.9,9.8,7.6,14.4,7.6l0,0c6.6,0,11.4-5.1,13.8-14.2
				c15.3-59.1-36.8-121.3-43.3-126.5c-1.8-1.5-3.1-1.7-4-0.8c-1.5,1.6-1.1,6.9-0.2,16.5C377.2,341.9,378.7,359,377.4,379.2z
				 M377.2,314.9c0.1-0.1,0.2-0.2,0.4-0.2c0.3,0,0.9,0.2,2,1.1c6.3,5.2,58.1,66.8,42.9,125.4c-2.3,8.6-6.8,13.3-12.7,13.3l0,0
				c-4.3,0-9.1-2.6-13.6-7.2c-10-10.5-19.9-34-17.6-68.1c1.4-20.2-0.2-37.3-1.2-48.7C376.5,322.1,376,316.2,377.2,314.9z"/>
			<path class="st2" d="M650.9-8.8c-17.5,0-37,3.2-57.6,6.7c-24.5,4.1-50,8.4-77.7,8.4c-2,0-4.1,0-5.9-0.1c-1.6,0-3.2-0.1-4.8-0.1
				c-4.2-0.1-8.2-0.2-11.9-0.2c-23.9,0-38.6,4.7-48.4,30c-6.1,15.9-13.1,34-29.9,45.7c-4.7,3.3-9.5,6.1-13.7,8.6
				c-9.7,5.8-17.3,10.3-17.6,16.6c-0.2,5.8,5.7,12.7,19.3,22.5c13,9.4,23.8,14,32.7,14c0.9,0,1.6,0,2.5-0.1
				c13.1-1.2,21.8-11.8,33-25.3c5.1-6.1,10.8-13,17.5-19.7c29.2-28.6,64.9-49.5,103.5-60.5c16.2-4.6,32.4-6.9,47.8-6.9
				c38.2,0,67.6,13.6,92,29.3v-0.8c-24.3-15.6-53.8-29.2-92-29.2c-15.5,0-31.6,2.4-48,7C552.9,48,517,69,487.8,97.7
				c-6.8,6.7-12.5,13.6-17.5,19.7c-11,13.3-19.7,23.9-32.6,25.1c-0.8,0.1-1.6,0.1-2.4,0.1c-8.8,0-19.5-4.5-32.4-13.9
				c-13.3-9.7-19.3-16.5-18.9-21.9c0.3-5.9,7.7-10.4,17.3-16c4.2-2.5,8.9-5.3,13.7-8.6c16.9-11.7,23.9-29.9,30.1-45.9
				c9.6-24.9,24.2-29.6,47.8-29.6c3.8,0,7.7,0.1,11.9,0.2c1.6,0,3.2,0.1,4.8,0.1c1.9,0,4,0.1,6,0.1c27.8,0,53.2-4.3,77.8-8.4
				c20.6-3.4,39.9-6.7,57.5-6.7C661-8.1,669.8-7,678-4.7c17.4,4.8,35.2,12.9,53.6,22.3v-0.8c-18.3-9.3-36-17.2-53.4-22.2
				C670-7.6,661.1-8.8,650.9-8.8z"/>
			<path class="st2" d="M359.9,377.1c-2.6,33.5,4.1,60.6,18.9,76.3c7.7,8.2,17.2,12.7,26.8,12.7l0,0c13.6,0,24.4-9.3,27.7-23.7
				c9.5-42-5.2-79.7-19.2-104c-16.4-28.5-37.3-48.7-47.3-55.4c-3.7-2.4-6.2-3.9-7.9-3.9c-0.5,0-1.1,0.2-1.4,0.5
				c-1.3,1.4-0.8,5.5,0.3,13.7C359.8,307.8,363.3,334.6,359.9,377.1z M358.1,280.2c0.2-0.2,0.5-0.3,0.9-0.3c1.4,0,4,1.5,7.5,3.8
				c22.8,15,83.3,83,66.2,158.7c-3.1,14.1-13.8,23.1-27,23.1c-9.4,0-18.7-4.4-26.3-12.6c-14.6-15.6-21.3-42.5-18.7-75.7
				c3.3-42.6-0.2-69.5-2-83.9C357.7,285.9,357,281.4,358.1,280.2z"/>
			<path class="st2" d="M347,379.3c-2.6,41.6,5.5,74.6,22.8,92.6c8.9,9.4,19.8,14.3,31.4,14.3l0,0c22.2,0,41-17.6,46.8-44
				c8.5-38.8,1.2-76.9-21.8-113.5c-23.3-37-55.6-60.9-72.8-71.9c-8.7-5.6-12.5-8-14-6.2c-1.2,1.4-0.4,5.4,1.1,13.4
				C344,281.5,350.9,317.5,347,379.3z M340,251.1c0.2-0.2,0.4-0.3,0.8-0.3c1.8,0,5.7,2.5,12.3,6.7c57.2,36.6,112.1,104.3,94.4,184.6
				c-5.7,25.9-24.3,43.5-46.2,43.5c-11.4,0-22.1-4.8-30.9-14.1c-17.2-18-25.2-50.7-22.6-92.2c3.9-62-3.1-98-6.5-115.3
				C339.9,256.7,339.1,252.3,340,251.1z"/>
			<path class="st2" d="M88.9,240.9c6.3,0,10.9-6,15.8-15.1c8.5-15.8,26.3-23.5,35.8-27.5c4.8-2,6.7-2.9,6.5-4.2
				c-0.2-1.1-1.4-1.5-8.1-2c-19.9-1.3-64.5,17.3-69.6,31.3c-1.2,3.2-0.3,6.2,2.6,8.5C79.4,238.2,84.6,240.9,88.9,240.9L88.9,240.9z
				 M70.7,224c4.7-12.8,46.2-30.3,66-30.3c0.6,0,1.4,0,2,0.1c3.9,0.2,5.6,0.5,6.3,0.8c-0.9,0.5-3,1.5-5.2,2.5
				c-9.7,4.2-27.8,11.9-36.6,28.2c-5.5,10.2-9.6,14.2-14.4,14.2c-4,0-8.7-2.6-16.1-8.5C70.4,228.9,69.7,226.7,70.7,224z"/>
			<path class="st2" d="M108.4,240.2c15.3-27.3,43.1-36.9,65.8-42.2c2.2-0.5,2.4-1.6,2.3-2.3c-0.5-4.4-21.7-13-53.3-13
				c-3.6,0-7.2,0.1-10.9,0.3c-14.4,0.9-48.5,20.7-60.7,35.3c-3.2,3.8-4.6,7-4.3,9.5c0.9,6.1,6.3,8.8,12.7,11.9
				c6.8,3.3,14.4,7.1,18.2,15.8c2.2,5.1,5.1,7.6,8.5,7.6C92.6,263.2,99.9,255.4,108.4,240.2z M79.3,255.1
				c-3.9-9.1-11.7-13-18.7-16.4c-6.1-3-11.4-5.6-12.2-11.1c-0.3-2,1.1-5.1,4.1-8.6c12.1-14.5,45.7-34.1,59.9-35
				c3.7-0.2,7.2-0.3,10.8-0.3c31.1,0,51.8,8.5,52.2,12.1c0.1,0.5-0.9,0.9-1.4,1c-22.8,5.3-51,15-66.5,42.7
				C94.6,262.6,84.9,268.2,79.3,255.1z"/>
			<path class="st2" d="M403.6,429.3L403.6,429.3c1.2,0,2.3-0.9,3.1-2.4c4.4-8.1,4.3-35.9-7.3-52.9c-1.5-2.2-3.7-1.9-5.4,0.9
				c-4.3,7.4-6.1,30.8,5.7,51.2C400.9,428.2,402.2,429.3,403.6,429.3z M395.4,375.6c0.5-1,1.2-1.6,1.6-1.6s0.8,0.5,1,0.8
				c11.1,16.2,11.3,43.7,7.2,51.3c-0.5,1.1-1.2,1.6-1.7,1.6c-0.6,0-1.6-0.9-2.5-2.5C389.6,405.6,391.4,382.5,395.4,375.6z"/>
			<path class="st2" d="M549.5,497c1.6,2.3,5.5,3.2,13,3.2c4.7,0,10.3-0.3,16.9-0.8c8.1-0.5,17.2-1.2,26.7-1.2
				c30,0,50.2,6.2,63.7,19.8c12.6,9.5,19.5,25,25.6,38.6c7.4,16.6,13.8,30.9,28,30.9c1.5,0,3.1-0.2,4.7-0.5c1.1-0.2,2.3-0.5,3.4-0.9
				V585c-1.3,0.4-2.5,0.8-3.7,1c-1.5,0.3-3,0.4-4.5,0.4c-13.4,0-19.7-14-26.9-30.2c-6.1-13.8-13.1-29.4-25.8-39
				c-13.7-13.7-34.1-20-64.5-20c-9.5,0-18.7,0.6-26.8,1.2c-6.6,0.4-12.2,0.8-16.8,0.8c-7,0-10.9-0.9-12.2-2.8
				c-0.8-1.1-0.8-2.5,0-4.3c14.3-37.6,26.3-85,25.1-99.6c-2-25.6-13.4-49.8-24.5-73.2c-13.6-28.6-26.4-55.6-18.2-78.2
				c11.3-31.3,62.9-85.8,90.8-89.4c1.3-0.2,2.8-0.3,4.4-0.3c21.7,0,60.1,15.3,103.5,40.7v-1.3c-43.4-25.2-81.7-40.5-103.5-40.5
				c-1.7,0-3.2,0.1-4.6,0.3c-28.3,3.8-80.4,58.6-91.8,90.2c-8.3,22.9,4.6,50.1,18.3,79c11.1,23.3,22.5,47.5,24.4,72.8
				c1,12.8-9.7,59-25,99.2C548.4,493.9,548.6,495.6,549.5,497z"/>
			<path class="st2" d="M655.8,846.1c-1.3,0-3.4,0.1-6.2,0.3c-4.6,0.3-11,0.6-17.2,0.6c-15.6,0-23.8-2.5-24.3-7.5
				c-0.8-7.4,17.3-18.6,29.3-25.9c4.7-2.9,8.8-5.5,10.8-7.1c14.8-12.8,28.6-28.8,40.9-47.6c8.1-12.4,14.1-25.7,20.3-39.9
				c4.7-10.7,12.3-21.7,22.2-29.4v-0.9c-10.1,7.7-17.9,19-22.7,29.9c-6.3,14.1-12.3,27.4-20.3,39.8c-12.2,18.6-25.9,34.6-40.8,47.3
				c-1.8,1.6-5.9,4.1-10.7,7c-12.8,7.9-30.3,18.7-29.6,26.6c0.5,5.5,8.7,8.1,25,8.1c6.3,0,12.7-0.4,17.3-0.6
				c2.7-0.2,4.8-0.3,6.1-0.3c23.6,0,44.5,3.8,63.6,11.3h1.8C701.8,850,680.1,846.1,655.8,846.1z"/>
			<path class="st2" d="M222.4-71.4c3,0,6.5-0.4,10.7-1.4c4.1-0.9,8.1-1.7,11.6-2.3c6-0.8,11.8-1.1,17-1.4
				c5.9-0.3,11.2-1.9,16.1-4.7c20.9-12.1,29.6-36.6,32.4-46.6c0.6-2.4,1.3-4.6,2-6.8h-0.8c-0.6,2-1.3,4.3-1.9,6.6
				c-2.8,9.9-11.4,34.3-32.1,46.2c-4.9,2.8-10.1,4.3-15.9,4.6c-5.2,0.3-11,0.6-17,1.4c-3.6,0.4-7.5,1.3-11.6,2.3
				c-4.1,0.9-7.5,1.3-10.5,1.3c-4.9,0-8.4-1.3-10.5-3.9c-3.2-3.8-3.7-10.7-1.4-21.5l0.3-1.7c3-15,8.2-26.4,16.2-35.4h-0.9
				c-8,9-13,20.4-16,35.3l-0.3,1.7c-2.3,11.1-1.7,18.1,1.6,22.1C213.6-72.8,217.2-71.4,222.4-71.4z"/>
			<path class="st2" d="M650.9,6.5c-16.2,0-35.1,3.1-55,6.5c-25.2,4.2-51.3,8.6-80.3,8.6c-2.2,0-4.2,0-6.3-0.1l-4.9-0.1
				c-4.1-0.1-8-0.2-11.5-0.2c-31.4,0-33,17-34.6,35c-0.9,9.9-1.8,20-7.3,28.7c-1.9,3.1-7.3,7-12.9,11.2c-11.9,8.8-25.5,18.8-19,28.2
				c2.8,4,6.1,6,10,6c2.2,0,4.4-0.6,6.8-1.8c10.7-5.4,21.9-21.3,31.1-34.1c5.2-7.2,9.7-13.6,12.1-15c2.6-1.5,5.4-1.7,7.9-1.7
				c1,0,1.9,0,2.9,0.1c1,0,1.9,0.1,2.9,0.1c3.7,0,7.6-0.4,11.1-3.6c4.2-3.8,4.7-8.7,5.3-13.4c0.4-4.3,0.9-8.3,3.8-11.7
				c8.7-10.3,39.4-17.4,59.7-22.2c6-1.4,11.2-2.6,15-3.7c17.6-4.9,35.2-7.5,52.1-7.5c37.6,0,67.5,12.1,92,26.6V41
				c-24.5-14.4-54.4-26.4-92-26.4c-17,0-34.6,2.6-52.4,7.5c-3.9,1.1-8.9,2.3-15,3.7c-21.6,5.1-51.3,12.1-60.4,22.6
				c-3.1,3.7-3.6,8.1-4.1,12.4c-0.5,4.7-1,9.3-4.9,12.8c-3.2,2.9-6.9,3.3-10.3,3.3c-1,0-1.9,0-2.9-0.1c-1,0-1.9-0.1-2.9-0.1
				c-2.6,0-5.7,0.2-8.5,1.8c-2.7,1.5-7,7.6-12.4,15.3c-8.6,12.1-20.3,28.5-30.7,33.8c-6.3,3.2-11.3,1.9-15.4-3.9
				c-5.9-8.5,7.2-18.2,18.7-26.7c5.9-4.4,11.1-8.2,13.1-11.4c5.7-8.9,6.6-19.3,7.5-29.3c1.7-18.2,3.1-34,33.5-34
				c3.6,0,7.4,0.1,11.5,0.2l4.9,0.1c2.2,0,4.2,0.1,6.3,0.1c29.2,0,55.2-4.4,80.5-8.6c19.9-3.3,38.6-6.5,54.8-6.5
				c8.6,0,16,0.9,22.7,2.8c18.3,5.2,37.7,14.3,58,24.9v-1.3c-19.7-10.7-39-19.7-57.2-24.9C667.1,7.3,659.6,6.5,650.9,6.5z"/>
			<path class="st2" d="M226.7-94.8c1.7,3.3,5.5,4.9,11.1,4.9c1.5,0,3.1-0.1,4.7-0.3c6.6-0.9,12.7-1.2,18.2-1.5
				c1.6-0.1,3.1-0.3,4.6-0.8c1.6-0.4,3.1-1.1,4.6-1.9c12.2-7,26.5-27.5,26.9-40.2h-1.1c-0.5,12.2-14.7,32.6-26.4,39.3
				c-1.4,0.9-2.9,1.4-4.4,1.8c-1.4,0.4-2.8,0.6-4.4,0.8c-5.4,0.3-11.6,0.6-18.2,1.5c-7.7,1.1-12.8-0.3-14.7-4
				c-2.6-4.9,0.5-14.6,8.1-25.2c4.2-5.7,9.8-10.3,17.1-14.2h-2.4c-6.7,3.8-11.8,8.2-15.7,13.6C226.9-110.1,223.8-100.2,226.7-94.8z"
				/>
			<path class="st2" d="M583.3,468.3c4.2,5.9,13,6.6,25.2,7.5c1.3,0.1,2.7,0.2,4.1,0.3c3.9,0.3,7.9,0.4,12.2,0.5
				c19.8,0.6,42.3,1.4,62.6,19.6l0.2,0.2c11.3,9.7,18,26.8,23.9,41.9c5.9,15.2,11.1,28.3,19.3,28.3c0.2,0,0.5,0,0.8-0.1v-0.6
				c-0.2,0-0.5,0.1-0.8,0.1c-7.7,0-12.8-12.9-18.6-27.9c-5.9-15.2-12.7-32.3-24-42.1l-0.2-0.2c-20.4-18.3-43-19.2-63.1-19.8
				c-4.3-0.1-8.3-0.3-12.2-0.5c-1.4-0.1-2.8-0.2-4.1-0.3c-12.1-0.9-20.7-1.5-24.6-7.2c-3.8-5.4-3.2-15.4,1.7-32.4
				c4.6-15.8,6.3-30.2,5.2-44.2c-2.3-28.3-14.3-53.8-25.9-78.4c-12.2-25.7-23.7-50-17.6-66.7c10-27.8,58.3-76.8,78.3-79.5
				c0.4-0.1,1.2-0.1,2.4-0.1c16.7,0,54.6,13.7,103.5,43.3v-0.8c-49-29.5-86.8-43.1-103.5-43.1c-1.2,0-2,0.1-2.5,0.1
				c-20.1,2.7-68.9,52-78.9,79.9c-6.1,16.9,5.5,41.3,17.6,67.1c11.6,24.5,23.7,49.9,25.8,78.2c1.1,13.9-0.6,28.2-5.2,43.9
				C579.9,452.8,579.4,462.7,583.3,468.3z"/>
			<path class="st2" d="M174.3,667.7c33.4-3.8,73.2-42.8,83.8-72.6c18.5-51.8-14.4-93.5-46.3-133.7c-30.8-39-59.7-75.6-45.6-120.4
				c12.3-39,52-60,83.1-60c16.8,0,31.3,5.8,40.9,16.5c11.4,12.6,15.8,31.7,12.9,55.4c-10,81.2-13,170.1,79.1,196.4
				c10.5,3,21,4.5,31,4.5c38.7,0,63.5-21.8,77.5-40.1c26.7-35.2,36-87.7,23.1-130.8c-11-36.6-32.5-72-65.8-108.4
				c-49.6-54-117.2-100.5-206.5-142l-3.9-1.8C200,113,161.1,94.9,120.2,85c-2.5-0.5-5.2-1.3-8-2c-12.7-3.3-28.4-7.4-41.9-7.4
				c-5.4,0-10.1,0.6-13.9,2c-5.8,2-9.1,6-12.3,9.8c-2.4,2.8-4.8,5.7-8.3,7.9c-2.3,1.4-6.7,3-11.4,4.8c-7.5,2.9-15.4,5.8-17.9,8.7
				c-4.7,5.5-3.4,8.8-2.2,12.1c0.9,2.3,1.8,4.5,0.6,7.7l-0.9,2.6c-6.8,19.7-6.8,19.7-22.5,24.1c-3,0.9-6.8,1.9-11.3,3.3
				c-12.9,4.1-18.2,10.2-23.3,16.2c-4,4.6-7.6,9-14.6,12.6c-0.2,0-0.4,0-0.6,0c-8.1,0-69.3,4-74,18.7c-1.3,4,1.5,8.3,8.2,12.9
				c8.4,5.7,14.7,6.3,18.8,6.3c1.9,0,3.8-0.2,5.5-0.3c1.5-0.1,2.9-0.3,4.2-0.3c4.9,0,9.9,1.4,16.8,18c1.7,4.1,3,7.4,4.1,10.2
				c5.3,13.7,5.5,13.8,18.9,19.5c3.3,1.4,7.5,3.1,12.8,5.5c17.3,7.9,20.9,16.8,25.4,28.1c2.4,5.9,5.1,12.7,10.1,20.3
				c5.5,8.2,11.8,14.7,18.1,21c11,11.2,21.3,21.8,24.6,39.6c5.7,30.7-11.2,59.9-30.3,87c-9.6,13-28.7,28.3-48.8,44.4
				c-34.3,27.4-73.2,58.6-73.4,87.5c-0.1,16.5,4.2,29.2,12.8,37.6c9.4,9.3,23.6,13.7,43.4,13.7c28.7,0,64.1-9.6,95.3-18
				c24.5-6.7,45.7-12.4,59.4-12.4c3,0,5.7,0.3,7.7,0.9c13.1,3.9,23.5,11.9,33.5,19.9c13.3,10.4,25.9,20.3,43.9,20.3
				C170.6,668.1,172.5,668,174.3,667.7z M91.8,626.3c-2.3-0.6-4.9-1-8.2-1c-13.8,0-35.1,5.7-59.7,12.4
				c-31.1,8.4-66.4,17.9-94.9,17.9c-19.4,0-33.2-4.3-42.3-13.2c-8.3-8.2-12.4-20.4-12.4-36.5c0.1-28.1,38.7-59.1,72.7-86.3
				c20.3-16.2,39.5-31.6,48.8-45c19.4-27.3,36.5-57,30.7-88.2c-3.3-18.2-13.9-28.9-25.1-40.3c-6.1-6.2-12.5-12.8-17.9-20.8
				c-4.9-7.4-7.6-14.2-10-20c-4.6-11.6-8.3-20.8-26.1-28.9c-5.3-2.4-9.5-4.2-12.8-5.6c-12.9-5.5-12.9-5.5-18.1-18.6
				c-1.1-2.8-2.4-6.1-4.1-10.2c-6.6-15.8-11.6-18.9-18.2-18.9c-1.4,0-2.8,0.1-4.3,0.3c-1.7,0.1-3.4,0.3-5.4,0.3
				c-4.2,0-10-0.6-17.9-6.1c-6-4.1-8.6-7.9-7.5-11.2c4.1-12.9,61.2-17.6,72.5-17.6c0.3,0,0.4,0,0.5,0l0.2-0.8l0.3,0.6
				c7.4-3.7,11.5-8.5,15.4-13c5.2-6.1,10.1-11.8,22.6-15.8c4.4-1.4,8.2-2.5,11.2-3.3c16.2-4.6,16.6-4.8,23.6-25.1l0.9-2.6
				c1.3-3.8,0.2-6.5-0.6-8.8c-1.2-3-2.3-5.7,1.9-10.4c2.3-2.6,10.2-5.6,17.2-8.3c4.7-1.8,9.3-3.6,11.6-4.9c3.8-2.3,6.2-5.3,8.7-8.2
				c3.2-3.8,6.1-7.4,11.6-9.3c3.7-1.3,8.2-1.9,13.3-1.9c13.3,0,28.9,4.1,41.5,7.3c2.9,0.8,5.6,1.5,8,2c40.8,9.9,79.6,28,117.1,45.4
				l3.9,1.8c89.2,41.4,156.6,87.8,206,141.7c33.2,36.2,54.7,71.4,65.5,107.7c12.8,42.6,3.6,94.7-22.8,129.4
				c-13.8,18.1-38.1,39.6-76.2,39.6c-9.9,0-20.1-1.5-30.6-4.5c-90.9-25.8-87.9-114.1-78-194.6c3-24.1-1.6-43.7-13.3-56.6
				c-9.9-11-24.7-17-42.1-17c-31.6,0-72.1,21.4-84.6,61.1c-14.3,45.5,16.2,84.4,45.8,121.8c31.5,40,64.2,81.3,45.9,132.3
				c-10.5,29.4-49.7,67.9-82.5,71.6c-1.8,0.2-3.7,0.3-5.4,0.3c-17.4,0-29.8-9.7-42.9-20C115.7,638.5,105.3,630.2,91.8,626.3z"/>
			<path class="st2" d="M213-54.3c7.6,0,16-1.8,23.5-3.4c3.8-0.9,7.4-1.6,10.3-2c5.4-0.8,10.7-1,15.8-1.3
				c10.7-0.6,20.7-1.2,28.6-5.6c6.5-3.6,11.1-9.5,14.3-18.1c5.8-15.4,12.9-32.7,22.9-49.8h-0.8c-10.1,17.1-17.2,34.3-22.9,49.6
				c-3.1,8.4-7.7,14.2-14,17.8c-7.9,4.4-17.8,4.9-28.3,5.5c-5.1,0.3-10.4,0.5-15.8,1.3c-2.9,0.4-6.6,1.2-10.3,2
				c-7.4,1.6-15.8,3.4-23.3,3.4c-7.4,0-12.7-1.7-16-5.4c-8.3-8.9-4.1-29.2-1.9-40.1l0.3-1.7c2.5-12.6,6.6-23.2,12.3-32.4h-0.8
				c-5.6,9.1-9.7,19.8-12.2,32.3l-0.3,1.7c-2.3,11-6.5,31.5,2,40.7C199.9-56.2,205.3-54.3,213-54.3z"/>
			<path class="st2" d="M386.6-134.6h-1.5c-2.8,2.9-5.2,5.6-7,8c-24.7,33.1-35.7,63.7-33.6,93.4c0.9,11.6-0.6,19.3-4.4,23.3
				c-2.5,2.7-5.9,4-10.5,4c-6.6,0-14.5-2.5-23.1-5.1c-7.7-2.4-15.7-4.7-23.2-5.6c-5.7-0.6-11.4-0.9-17.3-0.9c-19,0-37.1,3-56.2,6.1
				c-3.2,0.5-6.5,1.1-9.7,1.6h-0.2c-6.7,1.1-14.3,2.3-21.7,2.3c-14,0-22.9-4.5-27.4-14c-9.3-19.6-6.7-43.3-4.4-64
				c0.3-2.8,0.6-5.6,0.9-8.3c1.5-15.2,4.2-28.7,8.2-40.9h-1.2c-3.9,12.1-6.6,25.6-8.1,40.8c-0.3,2.7-0.5,5.5-0.9,8.3
				c-2.3,21-4.9,44.8,4.5,64.7c4.6,9.8,13.9,14.6,28.4,14.6c7.5,0,15.2-1.2,21.9-2.3h0.2c3.2-0.5,6.5-1.1,9.7-1.6
				c19-3.1,37.1-6.1,56.1-6.1c6,0,11.6,0.3,17.2,0.9c7.4,0.8,15.4,3.2,23,5.6c8.6,2.6,16.7,5.1,23.5,5.1c5.1,0,8.8-1.4,11.4-4.3
				c4-4.4,5.6-12.4,4.7-24.2c-2.2-29.5,8.7-59.7,33.4-92.6C380.9-128.6,383.5-131.4,386.6-134.6z"/>
			<path class="st2" d="M379.3,32.6c-7.6,5.3-18,7.9-31.8,7.9c-16.2,0-34.4-3.6-50.4-6.8c-9.5-1.8-18.4-3.7-25.6-4.4
				c-3.6-0.3-13.1-1.3-25-1.3c-21.8,0-49.9,2.9-59.3,16.8c-4.1,6-4.3,13.7-0.5,22.5c1.7,4.2,6.3,6.5,10.8,8.7
				c3.6,1.7,7.1,3.6,9.1,6.2c2.4,3.2,3.8,7.6,5.2,11.9c1.8,5.7,3.7,11.7,8,15.2c5.3,4.3,11.1,6.3,18.2,6.3c4.9,0,10-1,15-1.9
				c4.8-1,9.9-1.9,14.6-1.9c4.6,0,8.7,0.9,12.4,2.8c8.9,4.5,12.7,10.7,16.2,16.5c4.7,7.6,9.1,15,23.9,18.3
				c30.8,7.1,39.3,14.5,59.6,32.4c2.6,2.3,5.5,4.7,8.5,7.4c7.3,6.3,12.8,13.6,18,20.6c4.6,6.2,9.5,12.7,15.7,18.6
				c7.6,7.2,14.8,10.4,21.8,13.6c9.3,4.2,18.1,8.1,26,21.5l1.3,2.2c10,17,20.1,32.8,26.4,32.8c1,0,1.8-0.4,2.6-1.2
				c2.3-2.4,2.9-8.8,1.8-19.6c-0.5-6.3-5.3-11.9-9.7-17.4c-4.8-5.9-9.5-11.5-9.1-17.6c0.3-7.4,4.8-11,9.7-14.8
				c3.6-2.8,7.1-5.7,9.3-10.2c5.2-10.9,6.3-20.6,7.5-29.9c1.6-13,3.2-25.4,15.2-39.3c21.3-25,51.1-43.8,83.9-53
				c11-3.1,21.1-4.6,31-4.6c33.6,0,57.7,18,83.2,37c2.9,2.2,5.8,4.3,8.7,6.5v-1.9c-2.6-1.9-5.3-3.9-7.9-5.8
				c-25.7-19.2-50-37.3-84.1-37.3c-10,0-20.3,1.5-31.4,4.6c-33.1,9.4-63.3,28.4-84.7,53.6c-12.2,14.3-13.8,26.8-15.5,40.1
				c-1.2,9.3-2.4,18.8-7.4,29.5c-1.9,4.2-5.5,7-8.8,9.7c-4.8,3.9-9.9,8-10.2,16c-0.3,6.8,4.7,12.8,9.5,18.6
				c4.3,5.3,8.8,10.8,9.4,16.6c1.2,12.7-0.1,17-1.4,18.4c-0.4,0.4-0.9,0.6-1.4,0.6c-6.1,0-19.4-22.5-25-32.1l-1.3-2.2
				c-8.2-13.9-17.2-17.9-26.8-22.2c-6.9-3-14-6.2-21.4-13.3c-6.1-5.8-11-12.2-15.6-18.4c-5.3-7.1-10.8-14.3-18.2-20.8
				c-3.1-2.7-5.9-5.2-8.5-7.4c-20.7-18.1-29.2-25.6-60.4-32.7c-14.1-3.2-18.4-10.2-22.9-17.6c-3.8-6-7.6-12.4-16.9-17.1
				c-3.9-1.9-8.2-2.9-13-2.9c-4.9,0-10.1,1-15,1.9c-4.8,1-9.8,1.9-14.6,1.9c-6.8,0-12.2-1.9-17.2-6c-3.9-3.2-5.7-8.9-7.4-14.4
				c-1.4-4.4-2.8-9-5.4-12.4c-2.3-3-6-4.8-9.7-6.7c-4.4-2.2-8.5-4.2-10-7.9c-3.6-8.4-3.4-15.5,0.3-21.1c9-13.3,36.5-16.1,58-16.1
				c11.7,0,21.2,0.9,24.7,1.2c7.2,0.8,16.1,2.5,25.5,4.3c16.1,3.1,34.3,6.8,50.7,6.8c14.1,0,24.9-2.7,32.7-8.2
				c19.6-13.7,14-34.2,8.6-54.1C382.9-42,376.8-63.9,401-78.2c2.9-1.7,6.8-2.6,11.5-2.6c14.4,0,34.9,7.7,54.6,15.3
				c17.1,6.6,33.4,12.7,43.9,13c1.5,0,3,0,4.5,0l0,0c22.7,0,45.5-3.9,67.7-7.5c22.2-3.7,45-7.5,67.6-7.5c15.8,0,30,1.8,43.6,5.6
				c12.5,3.6,24.9,8.2,37,13.4v-1.7c-12.1-5.3-24.2-9.8-36.6-13.2c-13.7-3.9-28.1-5.7-44-5.7c-22.7,0-45.6,3.9-67.8,7.5
				c-22.1,3.7-45,7.5-67.5,7.5c-1.5,0-3,0-4.5,0c-10.2-0.2-26.4-6.3-43.4-12.9c-19.7-7.1-40.2-15-55-15c-5.1,0-9.1,1-12.4,2.8
				c-25.2,15-19,37.6-13,59.3C392.8,0.4,398,19.6,379.3,32.6z"/>
			<path class="st2" d="M188.5-23.8c4.8,0,10.3-0.5,18.6-1.9c21-3.4,41.7-5.1,65.4-5.1c5.9,0,12.1,0.1,18.7,0.3
				c2.3,0.1,4.3,0.1,6.1,0.1c11,0,17.3-1.3,22.1-4.5c5.6-3.9,9-10.5,11.2-22.5c5.1-27.3,16.2-52,35.1-77.3h-0.9
				c-18.7,25.3-29.8,49.8-34.9,77.1c-2.2,11.7-5.5,18.3-10.9,22.1c-4.6,3.1-10.9,4.4-21.7,4.4c-1.8,0-3.8,0-6.1-0.1
				c-6.7-0.2-12.8-0.3-18.7-0.3c-23.7,0-44.5,1.6-65.5,5.1c-8.2,1.4-13.8,1.9-18.5,1.9c-13.6,0-23.2-4.4-26.6-26.3
				c-3.2-20.8-0.3-42.8,2.6-57.6c1.9-9.6,4.5-18.3,7.9-26.4h-0.8c-3.3,8.1-5.9,16.8-7.9,26.3c-3,14.8-5.8,36.9-2.6,57.8
				C164.2-31.5,172.1-23.8,188.5-23.8z"/>
			<path class="st2" d="M197.8-40.4L197.8-40.4c2.2,0,4.4-0.2,6.8-0.6c17.9-2.9,36.9-4.6,56.7-5.2c4.6-0.1,9,0,13.3,0.1
				c2.8,0.1,5.5,0.1,8.2,0.1c8.1,0,16.5-0.6,22.9-5.1c5.4-3.7,9.1-9.8,11.6-18.7c6.8-24.1,16.5-45.5,29.4-65.1h-0.8
				C333-115.3,323.4-94,316.7-69.9c-2.5,8.7-6.1,14.7-11.4,18.3c-6.3,4.3-14.5,4.9-22.5,4.9c-2.6,0-5.3-0.1-8.2-0.1
				c-4.2-0.1-8.7-0.2-13.3-0.1c-19.8,0.4-39,2.3-56.8,5.2c-10.2,1.7-17.9-0.3-22.6-6c-10.9-12.9-4.9-42.1-1.8-57.7
				c2.2-10.9,5.5-20.7,9.8-29.4h-0.8c-4.3,8.7-7.5,18.4-9.7,29.3c-3.1,15.7-9,45,2,58.2C185.1-42.6,190.6-40.4,197.8-40.4z"/>
		</g>
	</g>
</mask>
<path class="st3" d="M-37.2-7.8c0-6.8-17.4-14.7-14.2-19.4L473.7-27c-1.2,8.5-1,20.3,9,20.3c12.4,0,29.4,15.8,26,38.5
	c-2.7,18.4-15.7,21.1-25.3,25.6c-21,9.8-11.6,31,2.8,41.5c4.7,3.4,11,6.2,12.6,15c1.5,8.3-3.2,15.3-3,23.5
	c0.5,18.7,31.7,25.1,17,48.3c-5.9,9.3-16.2,6.6-23.3,12.4c-11.8,9.6-19.7,30.3-20.6,51c-1.1,25.1,9.9,39.5,22.9,50.2
	c15.2,12.5,13,40.9,3.3,59.1c-7.7,14.5-20.8,15.1-29.2,28.3c-7.7,12.2-12.8,32.6-9.4,49.6c2.3,11.2,4.5,15.1,7.1,15.8
	c6.1,1.8,11.4-0.9,18.5-1.9c19.4-3,47.8,14.2,48.4,34.6c0.3,10.5-6.9,21.9-17,26.8c-13.1,6.2-21.2-3.4-36.7,0.5
	c-19.9,5.2-36.3,28.7-31.3,41.7c4,10.5,19.8,8.4,26.6,22.9c4.1,8.8-1.3,11.6,3.6,20c8,14,29.9,13.6,27.3,40.6
	c-1.7,18.6-16.8,30.9-27.7,30.9H344.1v0.2L-52.5,668"/>
</svg>
